<svg height="512" viewBox="0 0 60 60" width="512" xmlns="http://www.w3.org/2000/svg"><g id="Page-1" fill="none" fill-rule="evenodd"><g id="001---Punch-Bag" fill="rgb(184, 184, 184)" fill-rule="nonzero"><path id="Shape" d="m58 0h-56c-1.1045695 0-2 .8954305-2 2v1c0 2.209139 1.790861 4 4 4h19.7c.7190025 1.52252101 1.967793 2.73114264 3.513 3.4-.6467407.8270183-1.0458303 1.8204082-1.151 2.865-.836908.3662145-1.4587239 1.0971986-1.686 1.982-1.5256169 5.9748366-4.1870308 11.6001671-7.839 16.569-3.247 4.655-6.531 10.915-3.063 18.084 2.7791803 5.5879733 8.2277337 9.3622553 14.436 10 1.3898166.1399998 2.7901834.1399998 4.18 0 6.2078974-.638072 11.6560054-4.4123069 14.435-10 3.469-7.164.185-13.424-3.062-18.077-3.6524817-4.9690285-6.3142464-10.5947224-7.84-16.57-.2262593-.8827171-.8457264-1.6124345-1.68-1.979-.0987275-1.0478079-.4980721-2.0447806-1.15-2.871 1.5432679-.67110556 2.7897546-1.88062767 3.507-3.403h19.7c2.209139 0 4-1.790861 4-4v-1c0-1.1045695-.8954305-2-2-2zm-26.6 15c.7229744 6.0679581 2.188271 12.0241891 4.363 17.735 1.583 4.308 3.188 10.075 1.538 16.479-1.185 4.666-3.649 8.042-6.3 8.668v-42.882zm-2.4 42.882c-2.653-.63-5.114-4-6.3-8.672-1.649-6.4-.044-12.167 1.538-16.474 2.1746984-5.7111026 3.6396672-11.6677019 4.362-17.736h.4zm-13.726-8.858c-2.353-4.86-1.457-9.814 2.9-16.063 3.7925268-5.1643466 6.5548419-11.0108395 8.136-17.22.0418149-.1494569.1189882-.2866539.225-.4-.725007 5.7127422-2.1275431 11.3188584-4.178 16.7-1.683 4.581-3.386 10.728-1.6 17.661.6130392 2.668485 1.8211215 5.1639577 3.534 7.3-3.9165065-1.4063523-7.1440282-4.261977-9.017-7.978zm26.548-16.062c4.362 6.248 5.257 11.2 2.9 16.062-1.8719326 3.7190616-5.1010141 6.5769061-9.02 7.983 1.7125448-2.1359881 2.9199809-4.6315384 3.532-7.3 1.787-6.936.084-13.083-1.6-17.665-2.0506291-5.3810875-3.4531704-10.9872245-4.178-16.7.1060118.1133461.1831851.2505431.225.4 1.5826064 6.2095547 4.3466367 12.0560849 8.141 17.22zm-9.949-19.962h-3.746c.283-1.15 1.022-2 1.873-2s1.59.85 1.873 2zm-1.873-4c-1.5741585.00157771-3.056767-.73972654-4-2h8c-.943233 1.26027346-2.4258415 2.00157771-4 2zm28-6c0 1.1045695-.8954305 2-2 2h-52c-1.1045695 0-2-.8954305-2-2v-1h56z"/><path id="Shape" d="m15.445 24.832c.297245.1982824.6776931.2229246.9980331.0646441.3203401-.1582805.5319049-.4754371.555-.832s-.1457881-.6983617-.4430331-.8966441l-3-2c-.4595009-.306518-1.080482-.1825009-1.387.277s-.1825009 1.080482.277 1.387z"/><path id="Shape" d="m5.051 27.684c-.0838718.2516889-.06429359.5263908.05442526.763641.11871884.2372501.32684751.4176022.57857474.501359l6 2c.5246705.174522 1.091478-.1093295 1.266-.634s-.1093295-1.091478-.634-1.266l-6-2c-.25195016-.0837826-.52687696-.0639268-.76417325.0551903s-.41747885.3277154-.50082675.5798097z"/><path id="Shape" d="m47.832 21.445c-.1471733-.2206869-.3759984-.3738581-.6361213-.4258077-.2601229-.0519495-.5302285.0015795-.7508787.1488077l-3 2c-.297245.1982824-.4661282.5400812-.4430331.8966441s.2346599.6737195.555.832c.32034.1582805.7007881.1336383.9980331-.0646441l3-2c.2206869-.1471733.3738581-.3759984.4258077-.6361213.0519495-.2601229-.0015795-.5302285-.1488077-.7508787z"/><path id="Shape" d="m48 31c.1073885.0000777.2140884-.0171429.316-.051l6-2c.3394023-.1128959.5927937-.398285.6647242-.748664.0719304-.350379-.0485281-.712517-.316-.95-.2674719-.2374831-.6413219-.3142319-.9807242-.201336l-6 2c-.4690221.1524496-.7568689.6240766-.6780177 1.1109083.0788513.4868317.5008533.8434857.9940177.8400917z"/></g></g></svg>