<svg height="512" viewBox="0 0 60 60" width="512" xmlns="http://www.w3.org/2000/svg"><g id="Page-1" fill="none" fill-rule="evenodd"><g id="003---Bell" fill="rgb(0,0,0)" fill-rule="nonzero" transform="translate(-1 -1)"><path id="Shape" d="m21 7.43c.071631.00021338.1430657-.00750022.213-.023 1.244266-.26996404 2.5137843-.4064029 3.787-.407.5522847 0 1-.44771525 1-1s-.4477153-1-1-1c-1.4161435.00024476-2.8281908.15211025-4.212.453-.4987993.10886569-.8354987.5759916-.7810638 1.08362268.0544349.50763107.4825228.89274639.9930638.89337732z"/><path id="Shape" d="m16.88 7.8c-.1259754-.23339298-.3395075-.40718213-.5936203-.48313465-.2541127-.07595252-.5279899-.04784658-.7613797.07813465-6.48045195 3.4846555-10.52330641 10.2470738-10.525 17.605 0 .5522847.44771525 1 1 1s1-.4477153 1-1c.00118264-6.6243147 3.6407401-12.712651 9.475-15.85.4830751-.26222039.6639597-.86516917.405-1.35z"/><path id="Shape" d="m35 25c0-5.5228475-4.4771525-10-10-10s-10 4.4771525-10 10 4.4771525 10 10 10c5.5203344-.0060624 9.9939376-4.4796656 10-10zm-18 0c0-4.418278 3.581722-8 8-8s8 3.581722 8 8-3.581722 8-8 8c-4.4162219-.0049599-7.9950401-3.5837781-8-8z"/><path id="Shape" d="m29 25c0-2.209139-1.790861-4-4-4s-4 1.790861-4 4 1.790861 4 4 4 4-1.790861 4-4zm-6 0c0-1.1045695.8954305-2 2-2s2 .8954305 2 2-.8954305 2-2 2-2-.8954305-2-2z"/><path id="Shape" d="m55.5 15c-1.4940973.03381-2.9134221.6603832-3.9451279 1.7416108s-1.5910966 2.5283484-1.5548721 4.0223892c.0680227 1.3184872.6029176 2.5697655 1.509 3.53.3244211.3566698.5000955.8239423.491 1.306v15.688l-17 8.089v-2.568c10.2567044-4.7011528 15.8539198-15.9118628 13.4480082-26.9351297-2.4059115-11.0232669-12.1652415-18.88229453-23.4480082-18.88229453s-21.04209672 7.85902763-23.44800825 18.88229453c-2.40591152 11.0232669 3.19130381 22.2339769 13.44800825 26.9351297v11.191c0 1.6568542 1.3431458 3 3 3h14c1.6568542 0 3-1.3431458 3-3v-.859l22.015-10.481c1.2101874-.5885502 1.9801569-1.8142952 1.985-3.16v-17.89c-.0208601-.4726466.1442718-.934657.46-1.287 1.5352927-1.587927 1.9717145-3.9402586 1.1081975-5.9732304-.8635169-2.0329718-2.8594354-3.3521522-5.0681975-3.3497696zm-52.5 10c0-12.1502645 9.8497355-22 22-22s22 9.8497355 22 22-9.8497355 22-22 22c-12.1445532-.0137772-21.98622284-9.8554468-22-22zm29 34h-14c-.5522847 0-1-.4477153-1-1v-10.376c.9803372.3481007 1.9824981.6313782 3 .848v3.528c0 .5522847.4477153 1 1 1s1-.4477153 1-1v-3.194c1.9916365.2586653 4.0083635.2586653 6 0v3.194c0 .5522847.4477153 1 1 1s1-.4477153 1-1v-3.528c1.0175019-.2166218 2.0196628-.4998993 3-.848v10.376c0 .5522847-.4477153 1-1 1zm26.026-36.07c-.6807063.7239124-1.0492526 1.6865869-1.026 2.68v17.89c-.0018573.5772755-.3314099 1.1033965-.85 1.357l-21.15 10.069v-3.335l18.43-8.768c.3472838-.1654027.5689111-.5153406.57-.9v-16.323c.0138347-.9972014-.360531-1.9607271-1.044-2.687-.5744977-.6122908-.9132405-1.4084779-.956-2.247-.0701452-1.5918378.9437442-3.0301467 2.4665614-3.4990771s3.1701697.1498859 4.0076326 1.5054389.6536421 3.1056713-.447194 4.2576382z"/><path id="Shape" d="m48 8c.5522847 0 1-.44771525 1-1v-3c0-.55228475-.4477153-1-1-1s-1 .44771525-1 1v3c0 .55228475.4477153 1 1 1z"/><path id="Shape" d="m51 12c.2651948-.0000566.5195073-.1054506.707-.293l4-4c.2599566-.25107447.3642126-.62287789.2726972-.97250732-.0915155-.34962944-.3645604-.6226744-.7141899-.71418984-.3496294-.09151544-.7214328.01274058-.9725073.27269716l-4 4c-.2859079.2859943-.3714219.7160366-.216678 1.0896546.1547439.3736179.5192821.6172591.923678.6173454z"/></g></g></svg>