<svg height="512" viewBox="0 0 60 46" width="512" xmlns="http://www.w3.org/2000/svg"><g id="Page-1" fill="none" fill-rule="evenodd"><g id="004---Ring" fill="rgb(0,0,0)" fill-rule="nonzero"><path id="Shape" d="m58 27.184v-24.184c0-1.65685425-1.3431458-3-3-3h-2c-1.6568542 0-3 1.34314575-3 3v2h-5v-1c0-1.65685425-1.3431458-3-3-3h-1c-1.6568542 0-3 1.34314575-3 3v1h-16v-1c0-1.65685425-1.3431458-3-3-3h-1c-1.6568542 0-3 1.34314575-3 3v1h-5v-2c0-1.65685425-1.34314575-3-3-3h-2c-1.65685425 0-3 1.34314575-3 3v24.184c-1.19435086.4222546-1.99474861 1.5492146-2 2.816v6c0 1.6568542 1.34314575 3 3 3h11.556c-.3599241.6053465-.5518554 1.2957468-.556 2v3c0 1.1045695.8954305 2 2 2h27c1.1045695 0 2-.8954305 2-2v-3c-.0041446-.7042532-.1960759-1.3946535-.556-2h12.556c1.6568542 0 3-1.3431458 3-3v-6c-.0052514-1.2667854-.8056491-2.3937454-2-2.816zm-6-24.184c0-.55228475.4477153-1 1-1h2c.5522847 0 1 .44771525 1 1v24h-4zm-42 24v-5h40v5zm0-12h3.586l-3.586 3.586zm6.414 0h27.172l5 5h-37.172zm33.586 3.586-3.586-3.586h3.586zm-5-5.586v-1.277l2.235 1.277zm-2 0h-3v-6h3zm-5 0h-16v-2h16zm-18 0h-3v-6h3zm-5 0h-2.235l2.235-1.277zm35-6v5.277l-5-2.857v-2.42zm-10-3c0-.55228475.4477153-1 1-1h1c.5522847 0 1 .44771525 1 1v1h-3zm-2 3v2h-16v-2zm-21-3c0-.55228475.4477153-1 1-1h1c.5522847 0 1 .44771525 1 1v1h-3zm-2 3v2.42l-5 2.857v-5.277zm-11-4c0-.55228475.44771525-1 1-1h2c.55228475 0 1 .44771525 1 1v24h-4zm39 38v3h-27v-3c0-1.1045695.8954305-2 2-2h5c.5522847 0 1-.4477153 1-1s-.4477153-1-1-1h-3v-2c0-.5522847.4477153-1 1-1h17c.5522847 0 1 .4477153 1 1v2h-11c-.5522847 0-1 .4477153-1 1s.4477153 1 1 1h13c1.1045695 0 2 .8954305 2 2zm15-5c0 .5522847-.4477153 1-1 1h-16v-2c0-1.6568542-1.3431458-3-3-3h-17c-1.6568542 0-3 1.3431458-3 3v2h-15c-.55228475 0-1-.4477153-1-1v-6c0-.5522847.44771525-1 1-1h54c.5522847 0 1 .4477153 1 1z"/><path id="Shape" d="m6 31h-1c-.55228475 0-1 .4477153-1 1s.44771525 1 1 1h1c.55228475 0 1-.4477153 1-1s-.44771525-1-1-1z"/><path id="Shape" d="m16 31h-6c-.55228475 0-1 .4477153-1 1s.44771525 1 1 1h6c.5522847 0 1-.4477153 1-1s-.4477153-1-1-1z"/></g></g></svg>