<svg height="512" viewBox="0 0 60 60" width="512" xmlns="http://www.w3.org/2000/svg"><g id="Page-1" fill="none" fill-rule="evenodd"><g id="005---Head-Protection" fill="rgb(0,0,0)" fill-rule="nonzero"><path id="Shape" d="m55.312 18.031.506-8.895c.1678829-2.53545671-1.2980083-4.89616474-3.645-5.87-.452-.182-.929-.351-1.419-.513h-.008c-6.603-2.183-16.384-2.653-20.492-2.753h-.123c-3.49.064-15.413.49-22.306 3.267-2.34583843.97436631-3.81075519 3.33439829-3.643 5.869l.506 8.9c-2.62662879.1607287-4.67762872 2.3324786-4.688 4.964v13c.00330612 2.7600532 2.23994685 4.9966939 5 5h1.105c.44202029 3.1528743 1.56649337 6.1713764 3.295 8.845 2.484 3.788 7.386 8.576 16.6 9.875 2.6535738.373707 5.3464262.373707 8 0 9.217-1.3 14.119-6.087 16.607-9.875 1.726591-2.6743996 2.8502752-5.6926161 3.293-8.845h1.1c2.7600532-.0033061 4.9966939-2.2399468 5-5v-13c-.0077411-2.6334515-2.0594543-4.8081449-4.688-4.969zm-25.106-16.031c3.869.093 12.88.522 19.186 2.423l-.473 2.364c-.3747481 1.86746469-2.0143061 3.21165959-3.919 3.213h-30c-1.905618-.00162734-3.5454994-1.34734279-3.919-3.216l-.472-2.36c6.708-2.024 16.491-2.368 19.597-2.424zm-25.206 37c-1.65685425 0-3-1.3431458-3-3v-13c.00699314-1.5740836 1.22940174-2.8750756 2.8-2.98l1.07 18.79c0 .064.012.126.016.19zm43.934 9.747c-2.262 3.443-6.738 7.8-15.216 8.993-2.4665219.3470038-4.9694781.3470038-7.436 0-8.477-1.2-12.953-5.55-15.217-8.993-1.93121951-3.0106226-3.03494677-6.477016-3.2-10.05l-1.117-19.685v-.012c0-.008 0-.014 0-.021l-.569-9.957c-.11873824-1.67862823.84418655-3.24664774 2.395-3.9.04-.017.085-.03.125-.046l.42 2.1c.5604357 2.8039067 3.021633 4.8227497 5.881 4.824h30c2.859367-.0012503 5.3205643-2.0200933 5.881-4.824l.42-2.1c.039.016.083.03.123.046 1.5523605.65222114 2.5173213 2.2202824 2.4 3.9l-.567 9.953c0 .009-.005.016-.005.025v.014l-1.121 19.686c-.028.407-.057.806-.106 1.223-.3217011 3.1435661-1.3807376 6.1668395-3.091 8.824zm9.066-12.747c0 1.6568542-1.3431458 3-3 3h-.886c0-.064.009-.124.014-.189l1.072-18.791c1.5705983.1049244 2.7930069 1.4059164 2.8 2.98z"/><path id="Shape" d="m41 14.809h-22c-4.4596607.0489062-8.0383118 3.6982357-8 8.158v1.027c-.0024813 2.236576.9016855 4.3786504 2.506 5.937 2.351 2.269 5.494 1.869 7.729 3.138 2.0031781 1.1072269 2.7829057 3.5930215 1.771 5.646-.975 2.2-2.886 3.941-4.423 5.965-1.2617503 1.6277955-1.6014372 3.7885811-.9 5.725.6 1.477 1.912 2.571 4.012 3.342 2.6197411.9022333 5.3802263 1.3266367 8.15 1.253h.3c2.7720942.0741518 5.5349674-.3502543 8.157-1.253 2.1-.771 3.412-1.865 4.014-3.347.6997633-1.9352684.3601532-4.0940561-.9-5.721-1.518-2-3.445-3.762-4.424-5.965-1.0110994-2.0529856-.2309895-4.5381553 1.772-5.645 2.236-1.274 5.386-.882 7.728-3.137 1.6052028-1.5583208 2.5101126-3.7008064 2.508-5.938v-1.027c.0383118-4.4597643-3.5403393-8.1090938-8-8.158zm6 9.185c.0040862 1.6945887-.6793438 3.3183664-1.894 4.5-1.819 1.752-4.787 1.391-7.331 2.84-2.8896146 1.6228408-4.0295994 5.2057753-2.609 8.2 1.125 2.53 3.145 4.369 4.657 6.359.8236246 1.0719773 1.0632672 2.482124.64 3.766-.5876078 1.1131139-1.6247384 1.9204589-2.848 2.217-2.4478336.838864-5.0291947 1.2198817-7.615 1.124-2.5837333.0742153-5.1602792-.3083227-7.611-1.13-1.2215276-.2960295-2.2576385-1.1013273-2.846-2.212-.4253505-1.2845937-.1867924-2.6964684.637-3.77 1.565-2.059 3.534-3.831 4.657-6.359 1.4233986-2.9937911.2832894-6.5784902-2.608-8.2-2.546-1.449-5.508-1.084-7.332-2.841-1.2143589-1.1796131-1.8987883-2.8010288-1.897-4.494v-1.027c-.0394836-3.3556826 2.6444246-6.110267 6-6.158h22c3.3555754.047733 6.0394836 2.8023174 6 6.158z"/><path id="Shape" d="m13.262 44.441c-.8239329-1.8882349-1.298288-3.9103433-1.4-5.968l-.426-7.5c-.0312041-.5522847-.5042153-.9747041-1.0565-.9435-.55228475.0312041-.97470409.5042153-.9435 1.0565l.427 7.5c.11506093 2.298351.646692 4.5566821 1.569 6.665.2318223.4909275.8130056.7072076 1.3093692.4872653s.7265657-.7957531.5186308-1.2972653z"/><circle id="Oval" cx="14" cy="48" r="1"/></g></g></svg>