<svg height="512" viewBox="0 0 60 40" width="512" xmlns="http://www.w3.org/2000/svg"><g id="Page-1" fill="none" fill-rule="evenodd"><g id="007---Ticket" fill="rgb(0,0,0)" fill-rule="nonzero"><path id="Shape" d="m58.468 2.929c-.6801867-.18835155-1.2116485-.71981333-1.4-1.4-.2238424-.89061654-1.019744-1.51854929-1.938-1.529h-8.259c-.4629965-.000948-.9111617.16321376-1.264.463-.3299894.28004962-.5668358.65398085-.679 1.072-.1148878.41564695-.3602797.78338428-.7 1.049-.7253333.544-1.7226667.544-2.448 0-.3418973-.26583804-.5890981-.6347107-.705-1.052-.1124164-.41734642-.3492541-.79056639-.679-1.07-.353765-.30009651-.8030993-.46394218-1.267-.462h-34.259c-.92037101.00909639-1.71834163.63892174-1.941 1.532-.18870654.67997966-.72002034 1.21129346-1.4 1.4-.89101889.2232206-1.51924761 1.01949742-1.529 1.938v30.26c.00874511.9204948.63871968 1.7186545 1.532 1.941.68018667.1883515 1.21164845.7198133 1.4 1.4.22384236.8906165 1.01974404 1.5185493 1.938 1.529h34.259c.4629965.000948.9111617-.1632138 1.264-.463.3299894-.2800496.5668358-.6539808.679-1.072.1148878-.415647.3602797-.7833843.7-1.049.7253333-.544 1.7226667-.544 2.448 0 .3418973.265838.5890981.6347107.705 1.052.1124164.4173464.3492541.7905664.679 1.07.353765.3000965.8030993.4639422 1.267.462h8.259c.920371-.0090964 1.7183416-.6389217 1.941-1.532.1887065-.6799797.7200203-1.2112935 1.4-1.4.8910189-.2232206 1.5192476-1.0194974 1.529-1.938v-30.26c-.0087451-.92049485-.6387197-1.71865453-1.532-1.941zm-.468 17.071-.063 15.143c-1.3802795.3800954-2.4513313 1.4702254-2.807 2.857h-8.259l-.014-.063c-.2314019-.8339197-.7263805-1.5705994-1.411-2.1-.4290051-.32985-.9211672-.5681027-1.446-.7v-1.137c0-.5522847-.4477153-1-1-1s-1 .4477153-1 1v1.138c-.5248328.1318973-1.0169949.37015-1.446.7-.6995061.5446497-1.2002767 1.3044153-1.425 2.162h-17.065l-17.208-.062c-.18330889-.6675115-.53725142-1.2757964-1.027-1.765-.50602912-.5041791-1.13740616-.8642263-1.829-1.043v-15.13l.063-15.143c.66738293-.18414877 1.27554401-.53836383 1.765-1.028.50327394-.50655756.86288101-1.13776805 1.042-1.829h17.194l17.079.063c.2314019.83391971.7263805 1.57059939 1.411 2.1.4289498.32689983.9214752.56055988 1.446.686v1.151c0 .55228475.4477153 1 1 1s1-.44771525 1-1v-1.151c.5242057-.12423678 1.0167082-.35652355 1.446-.682.7004164-.54593787 1.2012748-1.3075942 1.425-2.167h5.065l3.208.063c.3801036 1.37991356 1.4697157 2.45083131 2.856 2.807z"/><path id="Shape" d="m5 10c.55228475 0 1-.44771525 1-1v-1.755c.23019186-.18349914.44987265-.37980962.658-.588.20792756-.20861977.4048604-.42791617.59-.657h1.752c.55228475 0 1-.44771525 1-1s-.44771525-1-1-1h-2.25c-.32452345.00024156-.62875001.15794723-.816.423-.20670615.29240081-.43787003.56671974-.691.82-.24654478.24828449-.51608535.4726226-.805.67-.27393862.18612812-.43795455.49581117-.438.827v2.26c0 .55228475.44771525 1 1 1z"/><path id="Shape" d="m9 34h-1.752c-.18519347-.2293394-.38247302-.4486501-.591-.657-.20755765-.2084213-.42691915-.4047449-.657-.588v-1.755c0-.5522847-.44771525-1-1-1s-1 .4477153-1 1v2.26c.00004545.3311888.16406138.6408719.438.827.28714881.1972969.55500666.421293.8.669.25350633.2535706.48500588.5282254.692.821.188064.2662085.4940646.42406.82.423h2.25c.55228475 0 1-.4477153 1-1s-.44771525-1-1-1z"/><path id="Shape" d="m55.562 5.913c-.2871488-.19729687-.5550067-.42129299-.8-.669-.2535063-.25357062-.4850059-.52822543-.692-.821-.188064-.26620846-.4940646-.42405999-.82-.423h-2.25c-.5522847 0-1 .44771525-1 1s.4477153 1 1 1h1.752c.1851935.22933937.382473.44865013.591.657.2075577.20842135.4269191.40474488.657.588v1.755c0 .55228475.4477153 1 1 1s1-.44771525 1-1v-2.26c-.0000455-.33118883-.1640614-.64087188-.438-.827z"/><path id="Shape" d="m55 30c-.5522847 0-1 .4477153-1 1v1.755c-.2301919.1834991-.4498726.3798096-.658.588-.2079276.2086198-.4048604.4279162-.59.657h-1.752c-.5522847 0-1 .4477153-1 1s.4477153 1 1 1h2.25c.3245235-.0002416.62875-.1579472.816-.423.2067062-.2924008.43787-.5667197.691-.82.2449643-.248037.5128218-.4723677.8-.67.27584-.1849947.441832-.4948715.443-.827v-2.26c0-.5522847-.4477153-1-1-1z"/><path id="Shape" d="m43 21c-.5522847 0-1 .4477153-1 1v2c0 .5522847.4477153 1 1 1s1-.4477153 1-1v-2c0-.5522847-.4477153-1-1-1z"/><path id="Shape" d="m43 27c-.5522847 0-1 .4477153-1 1v2c0 .5522847.4477153 1 1 1s1-.4477153 1-1v-2c0-.5522847-.4477153-1-1-1z"/><path id="Shape" d="m43 15c-.5522847 0-1 .4477153-1 1v2c0 .5522847.4477153 1 1 1s1-.4477153 1-1v-2c0-.5522847-.4477153-1-1-1z"/><path id="Shape" d="m43 9c-.5522847 0-1 .44771525-1 1v2c0 .5522847.4477153 1 1 1s1-.4477153 1-1v-2c0-.55228475-.4477153-1-1-1z"/><path id="Shape" d="m38.873 16.078c-.9859234-2.4558928-3.2427019-4.1704758-5.873-4.462.3543285-.9542189.2769761-2.01525995-.212-2.908-.686-1.126-2.122-1.7-4.268-1.7-7.182 0-12.646 6.071-14 7.719h-5.52c-1.65685425 0-3 1.3431458-3 3v9.02c0 1.6568542 1.34314575 3 3 3h5.78c4.206 2.188 9.827 2.362 13.324 2.439.9563093.3835855 1.9797968.5716215 3.01.553 3.5507258.1919191 6.8019543-1.9829002 7.98-5.338.6382903-1.6922833.9438815-3.4918762.9-5.3.0429831-2.0632697-.3385784-4.1133545-1.121-6.023zm-24.873 11.672h-5c-.55228475 0-1-.4477153-1-1v-9.02c0-.5522847.44771525-1 1-1h1v5.022c0 .5522847.4477153 1 1 1s1-.4477153 1-1v-5.022h2v5.27c0 .5522847.4477153 1 1 1s1-.4477153 1-1v-5.916c1.022-1.254 6.111-7.073 12.518-7.073 1.361 0 2.27.262 2.56.738.2028142.6293502.1233139 1.3156784-.218 1.882-.6954797.0769451-1.3839.2080091-2.059.392-6.2 1.682-7.616 7.222-6.939 11.456.3891225 2.4649132 1.500673 4.7590087 3.194 6.592-3.1149002-.0759605-6.1874241-.7395932-9.056-1.956v-2.115c0-.5522847-.4477153-1-1-1s-1 .4477153-1 1zm23.234-1.081c-1.111 2.808-3.287 4.181-6.482 4.066-2.958-.1-6.177-2.971-6.915-7.573-.572-3.578.568-7.875 5.487-9.208 3.474-.942 6.252-.364 7.721 2.937.6696736 1.6757517.9925146 3.4699177.949 5.274.0340038 1.5359024-.2238959 3.064297-.76 4.504z"/><path id="Shape" d="m33.9 17.2c-.5044524.2245604-.7314214.8154857-.507 1.32.7739408 2.153291.8175169 4.5014769.124 6.682-.1446126.3348127-.095481.7218027.1282097 1.0098563.2236907.2880535.5864619.4314838.946657.3742834.360195-.0572004.6606851-.3059592.7841333-.6491397.8855946-2.6808187.8309214-5.5834328-.155-8.229-.1076478-.2426819-.3073797-.4325973-.5551742-.5278884-.2477946-.0952912-.5233113-.0881361-.7658258.0198884z"/></g></g></svg>