<svg height="512" viewBox="0 0 40 60" width="512" xmlns="http://www.w3.org/2000/svg"><g id="Page-1" fill="none" fill-rule="evenodd"><g id="008---Mobile-Viewing" fill="rgb(0,0,0)" fill-rule="nonzero"><path id="Shape" d="m5 60h30c2.7600532-.0033061 4.9966939-2.2399468 5-5v-50c-.0033061-2.76005315-2.2399468-4.99669388-5-5h-30c-2.76005315.00330612-4.99669388 2.23994685-5 5v50c.00330612 2.7600532 2.23994685 4.9966939 5 5zm26.917-58-1 1.249c-.3759726.47635333-.9501536.75330254-1.557.751h-18.72c-.6084106.00151197-1.18370232-.27691449-1.56-.755l-.997-1.245zm-29.917 3c0-1.65685425 1.34314575-3 3-3h.52l2 2.491c.75308538.95543696 1.90345184 1.51181612 3.12 1.509h18.72c1.2151166.00543749 2.365392-.54757956 3.12-1.5l2-2.5h.52c1.6568542 0 3 1.34314575 3 3v50c0 1.6568542-1.3431458 3-3 3h-30c-1.65685425 0-3-1.3431458-3-3z"/><path id="Shape" d="m29 54h-18c-.5522847 0-1 .4477153-1 1s.4477153 1 1 1h18c.5522847 0 1-.4477153 1-1s-.4477153-1-1-1z"/><path id="Shape" d="m9.006 21.216h.036c.55163653-.0195404.9831134-.4823485.964-1.034-.08-2.312.586-3.53 2.375-4.343.5028552-.2286459.7251458-.8216447.4965-1.3245-.2286459-.5028552-.8216447-.7251459-1.3245-.4965-2.527 1.149-3.654 3.129-3.545 6.233.01883386.5377955.45987535.9642534.998.965z"/><path id="Shape" d="m7.93 40.213v7.787c0 1.6568542 1.34314575 3 3 3h12c1.6568542 0 3-1.3431458 3-3v-7.5c1.947-1.523 10-8.366 10-17.4 0-2.572-.681-4.291-2.023-5.108-1.2286232-.6408006-2.6827264-.6849982-3.948-.12-.2046477-3.3536598-2.348619-6.2789983-5.485-7.484-2.3573637-.96666002-4.8887499-1.43678432-7.436-1.381-2.2267075-.05428494-4.4429471.32193592-6.527 1.108-3.087 1.22-6.72 3.993-6.5 10.272.0372182 1.0922476.26778613 2.169247.681 3.181.113 4.811.599 11.623 3.238 16.645zm24.94-20.513c.7.423 1.063 1.6 1.063 3.4 0 8.239-7.89 14.77-9.34 15.9h-8.593c-.5522847 0-1 .4477153-1 1s.4477153 1 1 1h7.93v3h-6.444c-.5522847 0-1 .4477153-1 1s.4477153 1 1 1h6.444v2c0 .5522847-.4477153 1-1 1h-12c-.5522847 0-1-.4477153-1-1v-7h2.07c.5522847 0 1-.4477153 1-1s-.4477153-1-1-1h-2.434c-1.795-3.581-2.474-8.171-2.732-12.169 2.8998849 2.8968046 6.8291269 4.5270373 10.928 4.534 4.7 0 9.891-2.211 11.644-8.681.2392202-.8661705.4094196-1.7499371.509-2.643 1.3-.59 2.34-.715 2.955-.341zm-21.621-7.725c4.0370164-1.3873944 8.4346205-1.3023823 12.415.24 3.854 1.714 5.136 5.06 3.813 9.946-1.709 6.308-7.214 7.772-11.792 7.039-3.774-.6-7.639-2.861-9.085-6.248l-.024-.051c-.34524592-.8188143-.53774937-1.6938916-.568-2.582-.141-4.106 1.622-6.913 5.241-8.344z"/><path id="Shape" d="m21.868 32.5c-.2740357-.4792509-.8845957-.6457673-1.364-.372l-3 1.716-3-1.716c-.3107437-.187459-.6986581-.1918524-1.0135676-.0114792-.3149096.1803732-.5073813.5171988-.5029026.8800796s.2052049.6948535.5244702.8673996l1.973 1.136-1.985 1.132c-.3940621.2254282-.5868246.6880224-.4694404 1.1265697s.5154576.7429948.9694404.7414303c.1737359.0002873.3444758-.0452434.495-.132l3-1.716 3 1.716c.4794043.2737673 1.0899643.1072509 1.364-.372.2737673-.4794043.1072509-1.0899643-.372-1.364l-1.972-1.132 1.985-1.132c.2305557-.1322834.3989586-.3509155.4680083-.6076001.0690496-.2566846.0330638-.5302985-.1000083-.7603999z"/></g></g></svg>