<svg height="512" viewBox="0 0 46 60" width="512" xmlns="http://www.w3.org/2000/svg"><g id="Page-1" fill="none" fill-rule="evenodd"><g id="009---Boxing-Location" fill="rgb(0,0,0)" fill-rule="nonzero"><path id="Shape" d="m20.778 59.058c.5825092.6019722 1.3843321.9418419 2.222.9418419s1.6394908-.3398697 2.222-.9418419c5.139-4.077 20.778-16.482 20.778-36.058 0-12.7025492-10.2974508-23-23-23s-23 10.2974508-23 23c0 19.576 15.639 31.981 20.778 36.058zm2.222-57.058c11.592497.01322591 20.9867741 9.407503 21 21 0 18.61-15.069 30.563-20.021 34.491-.271.168-.465.509-.979.509s-.72-.349-.979-.509c-4.952-3.928-20.021-15.881-20.021-34.491.01322591-11.592497 9.407503-20.98677409 21-21z"/><path id="Shape" d="m27.93 47c1.6568542 0 3-1.3431458 3-3v-7.5c1.947-1.523 10-8.366 10-17.4 0-2.572-.681-4.291-2.023-5.108-1.2285082-.6412406-2.6828145-.6854445-3.948-.12-.2046477-3.3536598-2.348619-6.2789983-5.485-7.484-2.35738-.96660474-4.8887545-1.43672688-7.436-1.381-2.2267075-.05428494-4.4429471.32193592-6.527 1.108-3.087 1.22-6.72 3.993-6.5 10.272.0372182 1.0922476.26778613 2.169247.681 3.181.114 4.811.6 11.623 3.239 16.645v7.787c0 1.6568542 1.3431458 3 3 3zm-11.681-39.025c1.7391091-.64748119 3.5802724-.97771192 5.436-.975 2.386317-.0980941 4.7659802.31584932 6.979 1.214 3.854 1.714 5.136 5.06 3.813 9.946-1.709 6.307-7.215 7.772-11.792 7.039-3.763-.6-7.615-2.849-9.071-6.219-.0160352-.0408525-.0347423-.0806051-.056-.119-.3341316-.8078932-.5204232-1.6692377-.55-2.543-.141-4.105 1.622-6.912 5.241-8.343zm-1.319 36.025v-7h2.07c.5522847 0 1-.4477153 1-1s-.4477153-1-1-1h-2.434c-1.795-3.581-2.474-8.171-2.732-12.169 2.3082945 2.3214836 5.2986984 3.8436672 8.534 4.344.791745.1263315 1.5922395.1898628 2.394.19 4.7 0 9.891-2.211 11.644-8.681.2392202-.8661705.4094196-1.7499371.509-2.643 1.3-.59 2.341-.715 2.955-.34.7.423 1.063 1.6 1.063 3.4 0 8.239-7.89 14.77-9.34 15.9h-8.593c-.5522847 0-1 .4477153-1 1s.4477153 1 1 1h7.93v3c-.007 0-.012 0-.019 0h-7.425c-.5522847 0-1 .4477153-1 1s.4477153 1 1 1h7.425.019v2c0 .5522847-.4477153 1-1 1h-12c-.2653898.0000001-.5198954-.105494-.7074606-.2932467-.1875651-.1877527-.2928048-.4423636-.2925394-.7077533z"/><path id="Shape" d="m14.006 17.216h.036c.5516365-.0195404.9831134-.4823485.964-1.034-.08-2.312.586-3.53 2.375-4.343.3252903-.147908.546963-.4581209.5815161-.8137845.0345531-.3556637-.1232628-.7027443-.414-.9105-.2907372-.20775572-.6702258-.24462345-.9955161-.0967155-2.527 1.149-3.654 3.129-3.545 6.233.0188339.5377955.4598754.9642534.998.965z"/><path id="Shape" d="m18.132 33.5c.2740357.4792509.8845957.6457673 1.364.372l3-1.716 3 1.716c.4794043.2737673 1.0899643.1072509 1.364-.372.2737673-.4794043.1072509-1.0899643-.372-1.364l-1.973-1.136 1.985-1.132c.4650043-.2805182.6211324-.8808858.3516968-1.3523981-.2694357-.4715124-.8659405-.6418041-1.3436968-.3836019l-3 1.716-3-1.716c-.4777563-.2582022-1.0742611-.0879105-1.3436968.3836019-.2694356.4715123-.1133075 1.0718799.3516968 1.3523981l1.969 1.132-1.985 1.132c-.2305557.1322834-.3989586.3509155-.4680083.6076001-.0690496.2566846-.0330638.5302985.1000083.7603999z"/><path id="Shape" d="m27 49h-8c-.4043959.0000863-.7689341.2437275-.923678.6173454-.1547439.373618-.0692299.8036603.216678 1.0896546l4 4c.3904999.3903819 1.0235001.3903819 1.414 0l4-4c.2859079-.2859943.3714219-.7160366.216678-1.0896546-.1547439-.3736179-.5192821-.6172591-.923678-.6173454zm-4 3.586-1.586-1.586h3.172z"/></g></g></svg>