<svg height="512" viewBox="0 0 60 53" width="512" xmlns="http://www.w3.org/2000/svg"><g id="Page-1" fill="none" fill-rule="evenodd"><g id="010---Boxing-Chat" fill="rgb(0,0,0)" fill-rule="nonzero"><path id="Shape" d="m21.006 17.216h.036c.5516365-.0195404.9831134-.4823485.964-1.034-.08-2.312.586-3.53 2.375-4.343.3252903-.147908.546963-.4581209.5815161-.8137845.0345531-.3556637-.1232628-.7027443-.414-.9105-.2907372-.20775572-.6702258-.24462345-.9955161-.0967155-2.527 1.149-3.654 3.129-3.545 6.233.0188339.5377955.4598754.9642534.998.965z"/><path id="Shape" d="m19.93 36.213v7.787c0 1.6568542 1.3431458 3 3 3h12c1.6568542 0 3-1.3431458 3-3v-7.5c1.947-1.523 10-8.366 10-17.4 0-2.572-.681-4.291-2.023-5.108-1.2286232-.6408006-2.6827264-.6849982-3.948-.12-.2046477-3.3536598-2.348619-6.2789983-5.485-7.484-2.3574206-.9664666-4.8887661-1.43658335-7.436-1.381-2.2267075-.05428494-4.4429471.32193592-6.527 1.108-3.087 1.22-6.72 3.993-6.5 10.272.0372182 1.0922476.2677861 2.169247.681 3.181.113 4.811.599 11.623 3.238 16.645zm24.94-20.513c.7.423 1.063 1.6 1.063 3.4 0 8.239-7.89 14.77-9.34 15.9h-8.593c-.5522847 0-1 .4477153-1 1s.4477153 1 1 1h7.93v3c-.007 0-.012 0-.019 0h-7.425c-.5522847 0-1 .4477153-1 1s.4477153 1 1 1h7.425.019v2c0 .5522847-.4477153 1-1 1h-12c-.5522847 0-1-.4477153-1-1v-7h2.07c.5522847 0 1-.4477153 1-1s-.4477153-1-1-1h-2.434c-1.795-3.581-2.474-8.171-2.732-12.169 2.8998849 2.8968046 6.8291269 4.5270373 10.928 4.534 4.7 0 9.891-2.211 11.644-8.681.2392202-.8661705.4094196-1.7499371.509-2.643 1.301-.59 2.34-.715 2.955-.341zm-21.621-7.725c1.7391091-.64748119 3.5802724-.97771192 5.436-.975 2.3862783-.09750522 4.7658178.31641667 6.979 1.214 3.854 1.714 5.136 5.06 3.813 9.946-1.71 6.308-7.213 7.772-11.792 7.039-3.761-.6-7.61-2.846-9.068-6.213-.0170751-.0451112-.0374641-.0888973-.061-.131-.3329524-.8060786-.5185603-1.6653617-.548-2.537-.141-4.105 1.622-6.912 5.241-8.343z"/><path id="Shape" d="m33.868 28.5c-.2740357-.4792509-.8845957-.6457673-1.364-.372l-3 1.716-3-1.716c-.3107437-.187459-.6986581-.1918524-1.0135676-.0114792-.3149096.1803732-.5073813.5171988-.5029026.8800796s.2052049.6948535.5244702.8673996l1.973 1.136-1.985 1.132c-.3940621.2254282-.5868246.6880224-.4694404 1.1265697s.5154576.7429948.9694404.7414303c.1737359.0002873.3444758-.0452434.495-.132l3-1.716 3 1.716c.4794043.2737673 1.0899643.1072509 1.364-.372.2737673-.4794043.1072509-1.0899643-.372-1.364l-1.972-1.132 1.985-1.132c.2305557-.1322834.3989586-.3509155.4680083-.6076001.0690496-.2566846.0330638-.5302985-.1000083-.7603999z"/><path id="Shape" d="m4.282 50.683c-.11258981.6931385.1480927 1.3943541.68612368 1.8456191.53803098.4512651 1.2739184.5859068 1.93687632.3543809l8.866-3.057c4.4485807 2.1011339 9.3091926 3.1853691 14.229 3.174 16.542 0 30-11.888 30-26.5s-13.458-26.5-30-26.5-30 11.888-30 26.5c.01843354 5.6766197 2.02938613 11.1665698 5.682 15.512zm-2.282-24.183c0-13.509 12.561-24.5 28-24.5s28 10.991 28 24.5-12.561 24.5-28 24.5c-4.621.0124025-9.1867934-1.0041919-13.366-2.976-.2674997-.1298363-.5606615-.1981724-.858-.2-.2189229.0000938-.4362768.0369392-.643.109l-8.876 3.067 1.4-8.669c.08918183-.5631428-.06697141-1.1375247-.429-1.578-3.35601684-3.993326-5.20595337-9.0367738-5.228-14.253z"/></g></g></svg>