<svg height="512" viewBox="0 0 56 60" width="512" xmlns="http://www.w3.org/2000/svg"><g id="Page-1" fill="none" fill-rule="evenodd"><g id="011---Round-1" fill="rgb(0,0,0)" fill-rule="nonzero"><path id="Shape" d="m51 0h-46c-2.76005315.00330612-4.99669388 2.23994685-5 5v50c.00330612 2.7600532 2.23994685 4.9966939 5 5h46c2.7600532-.0033061 4.9966939-2.2399468 5-5v-50c-.0033061-2.76005315-2.2399468-4.99669388-5-5zm3 55c0 1.6568542-1.3431458 3-3 3h-46c-1.65685425 0-3-1.3431458-3-3v-50c0-1.65685425 1.34314575-3 3-3h46c1.6568542 0 3 1.34314575 3 3z"/><path id="Shape" d="m6 15v-4h1.434l2.709 4.515c.2892402.4622053.8954316.6075113 1.3627839.3266637.4673523-.2808477.6235797-.8843167.3512161-1.3566637l-2.215-3.692c1.6155957-.5543742 2.5928161-2.19635038 2.3096401-3.88077661s-1.7435824-2.91660264-3.4516401-2.91222339h-3.5c-.55228475 0-1 .44771525-1 1v10c0 .5522847.44771525 1 1 1s1-.4477153 1-1zm0-9h2.5c.82842712 0 1.5.67157288 1.5 1.5s-.67157288 1.5-1.5 1.5h-2.5z"/><path id="Shape" d="m18 16c2.209139 0 4-1.790861 4-4v-4c0-2.209139-1.790861-4-4-4s-4 1.790861-4 4v4c0 2.209139 1.790861 4 4 4zm-2-8c0-1.1045695.8954305-2 2-2s2 .8954305 2 2v4c0 1.1045695-.8954305 2-2 2s-2-.8954305-2-2z"/><path id="Shape" d="m47 4h-1c-1.1045695 0-2 .8954305-2 2v8c0 1.1045695.8954305 2 2 2h1c2.7600532-.0033061 4.9966939-2.2399468 5-5v-2c-.0033061-2.76005315-2.2399468-4.99669388-5-5zm3 7c0 1.6568542-1.3431458 3-3 3h-1v-8h1c1.6568542 0 3 1.34314575 3 3z"/><path id="Shape" d="m28 16c2.209139 0 4-1.790861 4-4v-7c0-.55228475-.4477153-1-1-1s-1 .44771525-1 1v7c0 1.1045695-.8954305 2-2 2s-2-.8954305-2-2v-7c0-.55228475-.4477153-1-1-1s-1 .44771525-1 1v7c0 2.209139 1.790861 4 4 4z"/><path id="Shape" d="m35 16c.5522847 0 1-.4477153 1-1v-6.39l4.143 6.905c.1807575.3008613.5060146.4849332.857.485.0901947-.0002235.179967-.0123276.267-.036.4332476-.1200348.7331364-.5144315.733-.964v-10c0-.55228475-.4477153-1-1-1s-1 .44771525-1 1v6.39l-4.143-6.9c-.2310196-.3842222-.6895255-.56773245-1.1218446-.44900184s-.7327824.51068149-.7351554.95900184v10c0 .5522847.4477153 1 1 1z"/><path id="Shape" d="m49 18h-42c-1.1045695 0-2 .8954305-2 2v33c0 1.1045695.8954305 2 2 2h42c1.1045695 0 2-.8954305 2-2v-33c0-1.1045695-.8954305-2-2-2zm0 35h-42v-33h42z"/><path id="Shape" d="m10 28c.5522847 0 1-.4477153 1-1v-3h3c.5522847 0 1-.4477153 1-1s-.4477153-1-1-1h-4c-.55228475 0-1 .4477153-1 1v4c0 .5522847.44771525 1 1 1z"/><path id="Shape" d="m42 51h4c.5522847 0 1-.4477153 1-1v-4c0-.5522847-.4477153-1-1-1s-1 .4477153-1 1v3h-3c-.5522847 0-1 .4477153-1 1s.4477153 1 1 1z"/><path id="Shape" d="m10 51h4c.5522847 0 1-.4477153 1-1s-.4477153-1-1-1h-3v-3c0-.5522847-.4477153-1-1-1-.55228475 0-1 .4477153-1 1v4c0 .5522847.44771525 1 1 1z"/><path id="Shape" d="m42 24h3v3c0 .5522847.4477153 1 1 1s1-.4477153 1-1v-4c0-.5522847-.4477153-1-1-1h-4c-.5522847 0-1 .4477153-1 1s.4477153 1 1 1z"/><path id="Shape" d="m19.776 34.642c.374073.9210862 1.367906 1.4275875 2.333 1.189.6652876-.1683906 1.3023652-.4331939 1.891-.786v4.955h-2c-1.1045695 0-2 .8954305-2 2v4c0 1.1045695.8954305 2 2 2h12c1.1045695 0 2-.8954305 2-2v-4c0-1.1045695-.8954305-2-2-2h-2v-14c0-.5522847-.4477153-1-1-1h-6c-.3340891-.0002731-.6462465.1663109-.832.444-1.1501482 1.5210186-2.7193463 2.673154-4.515 3.315-.5103664.1835005-.9243261.5664044-1.1469903 1.0609414-.2226643.4945371-.2349387 1.0582989-.0340097 1.5620586zm5.724-7.642h4.5v14c0 .5522847.4477153 1 1 1h3v4h-12v-4h3c.5522847 0 1-.4477153 1-1v-8c-.0000863-.4043959-.2437275-.7689341-.6173454-.923678-.373618-.1547439-.8036603-.0692299-1.0896546.216678-.7262093.7658767-1.6476357 1.3190783-2.665 1.6l-1.3-3.248c2.0178418-.7327269 3.8033689-1.9910885 5.172-3.645z"/></g></g></svg>