<svg height="512" viewBox="0 0 60 60" width="512" xmlns="http://www.w3.org/2000/svg"><g id="Page-1" fill="none" fill-rule="evenodd"><g id="012---Boxing-Event" fill="rgb(0,0,0)" fill-rule="nonzero"><path id="Shape" d="m55 5.09v-2.09c0-1.65685425-1.3431458-3-3-3s-3 1.34314575-3 3v2h-5v-2c0-1.65685425-1.3431458-3-3-3s-3 1.34314575-3 3v2h-5v-2c0-1.65685425-1.3431458-3-3-3s-3 1.34314575-3 3v2h-5v-2c0-1.65685425-1.3431458-3-3-3s-3 1.34314575-3 3v2h-5v-2c0-1.65685425-1.34314575-3-3-3s-3 1.34314575-3 3v2.09c-2.88330337.48986653-4.99457036 2.98538412-5 5.91v45c0 2.209139 1.790861 4 4 4h52c2.209139 0 4-1.790861 4-4v-45c-.0054296-2.92461588-2.1166966-5.42013347-5-5.91zm-4-2.09c0-.55228475.4477153-1 1-1s1 .44771525 1 1v6c0 .55228475-.4477153 1-1 1s-1-.44771525-1-1zm-11 0c0-.55228475.4477153-1 1-1s1 .44771525 1 1v6c0 .55228475-.4477153 1-1 1s-1-.44771525-1-1zm-11 0c0-.55228475.4477153-1 1-1s1 .44771525 1 1v6c0 .55228475-.4477153 1-1 1s-1-.44771525-1-1zm-11 0c0-.55228475.4477153-1 1-1s1 .44771525 1 1v6c0 .55228475-.4477153 1-1 1s-1-.44771525-1-1zm-11 0c0-.55228475.44771525-1 1-1s1 .44771525 1 1v6c0 .55228475-.44771525 1-1 1s-1-.44771525-1-1zm49 55h-52c-1.1045695 0-2-.8954305-2-2v-38h15c.5522847 0 1-.4477153 1-1s-.4477153-1-1-1h-15v-5c.00681482-1.81841162 1.23931486-3.40340667 3-3.858v1.858c0 1.6568542 1.34314575 3 3 3s3-1.3431458 3-3v-2h5v2c0 1.6568542 1.3431458 3 3 3s3-1.3431458 3-3v-2h5v2c0 1.6568542 1.3431458 3 3 3s3-1.3431458 3-3v-2h5v2c0 1.6568542 1.3431458 3 3 3s3-1.3431458 3-3v-2h5v2c0 1.6568542 1.3431458 3 3 3s3-1.3431458 3-3v-1.858c1.7606851.45459333 2.9931852 2.03958838 3 3.858v5h-14c-.5522847 0-1 .4477153-1 1s.4477153 1 1 1h14v38c0 1.1045695-.8954305 2-2 2z"/><path id="Shape" d="m55 20h-5c-.5522847 0-1 .4477153-1 1s.4477153 1 1 1h4v32h-4c-.5522847 0-1 .4477153-1 1s.4477153 1 1 1h5c.5522847 0 1-.4477153 1-1v-34c0-.5522847-.4477153-1-1-1z"/><path id="Shape" d="m10 22c.5522847 0 1-.4477153 1-1s-.4477153-1-1-1h-5c-.55228475 0-1 .4477153-1 1v34c0 .5522847.44771525 1 1 1h5c.5522847 0 1-.4477153 1-1s-.4477153-1-1-1h-4v-32z"/><path id="Shape" d="m22.074 26.216h.035c.2650925-.009125.5156994-.1231968.6966773-.317115.1809778-.1939183.2774982-.4517943.2683227-.716885-.08-2.312.586-3.53 2.374-4.343.5012576-.2293021.7224384-.8209855.4945099-1.3228691-.2279285-.5018837-.8190039-.7246841-1.3215099-.4981309-2.527 1.149-3.653 3.129-3.546 6.233.0188479.5381826.4604875.9647914.999.965z"/><path id="Shape" d="m49 28.1c0-2.572-.681-4.291-2.023-5.107-1.2282001-.6421494-2.6827803-.68673-3.948-.121-.2036592-3.3540169-2.3479809-6.2798334-5.485-7.484-2.3572822-.9669366-4.8887266-1.4370717-7.436-1.381-2.2265267-.0517849-4.4422927.3243556-6.527 1.108-3.086 1.22-6.72 3.993-6.5 10.272.0374521 1.0923186.2683623 2.1693348.682 3.181.114 4.812.6 11.623 3.239 16.646v7.786c0 1.6568542 1.3431458 3 3 3h11.998c1.6568542 0 3-1.3431458 3-3v-7.5c1.946-1.525 10-8.369 10-17.4zm-24.684-11.125c1.7387886-.6473844 3.5796064-.9776139 5.435-.975 2.3864052-.0945101 4.7656436.3193002 6.98 1.214 3.853 1.714 5.136 5.06 3.812 9.946-1.709 6.308-7.212 7.772-11.791 7.039-3.762-.6-7.611-2.847-9.069-6.214-.0171185-.0479964-.0381908-.0944893-.063-.139-.3304433-.8035866-.5149966-1.6596429-.545-2.528-.14-4.105 1.625-6.912 5.241-8.343zm13.344 27.025h-8.593c-.5522847 0-1 .4477153-1 1s.4477153 1 1 1h7.933v3c-.007 0-.012 0-.019 0h-7.427c-.5522847 0-1 .4477153-1 1s.4477153 1 1 1h7.424.019v2c0 .5522847-.4477153 1-1 1h-11.997c-.5522847 0-1-.4477153-1-1v-7h2.07c.5522847 0 1-.4477153 1-1s-.4477153-1-1-1h-2.436c-1.8-3.582-2.475-8.172-2.733-12.169 2.8998849 2.8968046 6.8291269 4.5270373 10.928 4.534 4.706 0 9.892-2.211 11.645-8.681.2383472-.866323.4082041-1.7500467.508-2.643 1.3-.59 2.34-.715 2.956-.34.7.423 1.062 1.6 1.062 3.4 0 8.238-7.89 14.769-9.34 15.899z"/><path id="Shape" d="m34.936 37.5c-.1316036-.2304219-.3493937-.3990895-.6054124-.4688616-.2560188-.0697721-.5292717-.0349273-.7595876.0968616l-3 1.716-3-1.716c-.3107437-.187459-.6986581-.1918524-1.0135676-.0114792-.3149096.1803732-.5073813.5171988-.5029026.8800796s.2052049.6948535.5244702.8673996l1.973 1.136-1.981 1.132c-.3940621.2254282-.5868246.6880224-.4694404 1.1265697s.5154576.7429948.9694404.7414303c.1737359.0002873.3444758-.0452434.495-.132l3-1.716 3 1.716c.3107437.187459.6986581.1918524 1.0135676.0114792.3149096-.1803732.5073813-.5171988.5029026-.8800796s-.2052049-.6948535-.5244702-.8673996l-1.975-1.132 1.98-1.132c.2314057-.1314421.400872-.3497031.4708797-.6064608.0700078-.2567577.0347816-.5308303-.0978797-.7615392z"/></g></g></svg>