<svg height="512" viewBox="0 0 40 60" width="512" xmlns="http://www.w3.org/2000/svg"><g id="Page-1" fill="none" fill-rule="evenodd"><g id="013---Punch-Bag" fill="rgb(0,0,0)" fill-rule="nonzero"><path id="Shape" d="m32 10c1.1045695 0 2-.8954305 2-2v-4c0-1.1045695-.8954305-2-2-2h-22c0-1.1045695-.8954305-2-2-2h-4c-1.1045695 0-2 .8954305-2 2v50c-1.1045695 0-2 .8954305-2 2v4c0 1.1045695.8954305 2 2 2h36c1.1045695 0 2-.8954305 2-2v-4c0-1.1045695-.8954305-2-2-2h-15.586l-12.414-12.414v-17.172l12.414-12.414h6.586v2.638l-4.537 5.444c-.8617386.2401881-1.4591692 1.0234224-1.463 1.918v28c0 1.1045695.8954305 2 2 2h10c1.1045695 0 2-.8954305 2-2v-28c-.0038308-.8945776-.6012614-1.6778119-1.463-1.918l-4.537-5.444v-2.638zm-2 4.562 2.865 3.438h-5.73zm-5 11.438h10v16h-10zm0-2v-4h10v4zm0 24v-4h10v4zm7-44v4h-22v-4zm-22 44.414 3.586 3.586h-3.586zm0-38.414h3.586l-3.586 3.586zm-6-8h4v50h-4zm34 56h-36v-4h36zm-18.414-6h-3.172l-6.414-6.414v-3.172zm-9.586-32.414v-3.172l6.414-6.414h3.172z"/><circle id="Oval" cx="6" cy="6" r="1"/><circle id="Oval" cx="6" cy="42" r="1"/><circle id="Oval" cx="19" cy="6" r="1"/><circle id="Oval" cx="20" cy="56" r="1"/></g></g></svg>