<svg height="512" viewBox="0 0 32 60" width="512" xmlns="http://www.w3.org/2000/svg"><g id="Page-1" fill="none" fill-rule="evenodd"><g id="014---Punch-Bag" fill="rgb(0,0,0)" fill-rule="nonzero"><path id="Shape" d="m8 50v2h-2c-3.31233757.0033074-5.99669262 2.6876624-6 6 0 1.1045695.8954305 2 2 2h28c1.1045695 0 2-.8954305 2-2-.0033074-3.3123376-2.6876624-5.9966926-6-6h-3v-2c0-1.6568542-1.3431458-3-3-3v-7h3c2.209139 0 4-1.790861 4-4v-32c0-3.158-7.229-4-11.5-4s-11.5.842-11.5 4v32c0 2.209139 1.790861 4 4 4h3v7c-1.65685425 0-3 1.3431458-3 3zm22 8h-28c0-2.209139 1.790861-4 4-4h20c2.2077689.0033042 3.9966958 1.7922311 4 4zm-9-8v2h-11v-2c0-.5522847.4477153-1 1-1h9c.5522847 0 1 .4477153 1 1zm-15-14v-31.973c.19-.577 3.3-2.027 9.5-2.027 6.164 0 9.275 1.435 9.5 2.018v31.982c0 1.1045695-.8954305 2-2 2h-15c-1.1045695 0-2-.8954305-2-2zm7 4h5v7h-5z"/><path id="Shape" d="m9 5c-.55228475 0-1 .44771525-1 1v2c0 .55228475.44771525 1 1 1s1-.44771525 1-1v-2c0-.55228475-.44771525-1-1-1z"/><path id="Shape" d="m9 11c-.55228475 0-1 .4477153-1 1v22c0 .5522847.44771525 1 1 1s1-.4477153 1-1v-22c0-.5522847-.44771525-1-1-1z"/></g></g></svg>