<svg height="512" viewBox="0 0 46 60" width="512" xmlns="http://www.w3.org/2000/svg"><g id="Page-1" fill="none" fill-rule="evenodd"><g id="015---Robe" fill="rgb(184,184, 184)" fill-rule="nonzero"><path id="Shape" d="m45.748 45.005-.955-3.223v-.015l-5.3-17.894c-.5225826-1.7506049-1.4304506-3.3620108-2.657-4.716-1.0985058-1.2007812-2.4307446-2.1644849-3.915-2.832-.447-2.95-2.836-16.325-9.921-16.325s-9.474 13.375-9.915 16.325c-1.4852662.6681148-2.8182338 1.6328744-3.917 2.835-1.22632849 1.3541484-2.13416678 2.9655016-2.657 4.716l-5.3 17.9-.96 3.224c-.2566054.8663886.09957851 1.7972214.869 2.271 2.51471016 1.4892782 5.33159383 2.3952055 8.243 2.651-.2 1.228-.409 2.428-.624 3.522-.17.87-.323 1.509-.442 2.009l-.12.51c-.18897695.8109952.1510215 1.6533914.85 2.106 2.2963825 1.3335798 4.9184297 2.002162 7.573 1.931.591 0 1.122-.026 1.566-.062 1.0348547-.0890536 1.8305756-.9533263 1.834-1.992v-.1c1.2142184-.3538156 2.1381969-1.3426144 2.409-2.578l.591-2.658.591 2.657c.2704774 1.2357687 1.1945141 2.2250136 2.409 2.579v.1c.0028159 1.0383542.7975552 1.9029369 1.832 1.993.444.036.974.062 1.566.062 2.6549175.0720744 5.2775891-.5954518 7.575-1.928.6991429-.4529469 1.0391278-1.2957094.85-2.107l-.12-.509c-.119-.5-.272-1.139-.442-2.01-.215-1.093-.428-2.293-.624-3.521 2.9116753-.2560166 5.7288364-1.1619232 8.244-2.651.7682244-.4742507 1.1234754-1.4043771.867-2.27zm-8.177-20.561 5.084 17.129c-2.0801332 1.2374888-4.4005367 2.0165252-6.806 2.285-.5960354-5.2213231-.5493535-10.4960439.139-15.706.0682347-.3596368-.0654825-.7278157-.3486021-.9598458-.2831195-.2320301-.6703907-.2908263-1.0096196-.1532824-.339229.137544-.5761972.4494448-.6177783.8131282-.7515512 5.7034423-.7713784 11.4795326-.059 17.188v.032c.152 1.369.332 2.735.532 4.056v.027c.194 1.29.41 2.573.632 3.767-2.3356684.5574164-4.7184033.8948896-7.117 1.008v-25.93c0-.2 0-.393.009-.611.2093691-3.4842498 1.7025069-6.7673003 4.191-9.215 1.1926459.5598303 2.2625734 1.3503803 3.148 2.326 1.0253481 1.1327986 1.784825 2.4802466 2.223 3.944zm-21.42-12.977c2.2654477-.3512121 4.5568467-.5074515 6.849-.467 2.2915009-.0409137 4.5822754.1153287 6.847.467.2.7.368 1.4.516 2.06-.283-.053-.593-.106-.948-.158-2.1277846-.2651197-4.2708499-.3883919-6.415-.369-2.1468384-.0193355-4.2925828.1042711-6.423.37-.352.051-.661.1-.942.157.149-.662.321-1.356.516-2.06zm9.849 16.533v7.483c-1.9406086.6892976-4.0593914.6892976-6 0v-7.483c0-.236 0-.471-.01-.66.0518384-4.1196897-.5776461-8.2196169-1.863-12.134 1.429-.136 3.06-.206 4.873-.206s3.446.07 4.873.206c-1.2837262 3.9030441-1.9128876 7.9915798-1.862 12.1-.011.223-.011.458-.011.694zm3.9-12.524c.369.067.65.131.884.19.057.334.107.649.149.941-.7676562.7308076-1.4591963 1.5376044-2.064 2.408.2545232-1.2038292.5991605-2.3868275 1.031-3.539zm-14.693.19c.234-.059.517-.123.885-.19.4316732 1.1513743.775654 2.3337459 1.029 3.537-.6038392-.8699466-1.2947399-1.676109-2.062-2.406.046-.292.095-.607.152-.941zm4.793 21.934c1.9646239.5319854 4.0353761.5319854 6 0v1.882c-1.9406086.6892976-4.0593914.6892976-6 0zm3-35.6c2.849 0 4.875 3.528 6.191 7.345-2.0538874-.25042349-4.1220056-.36567156-6.191-.345-2.0700173-.02049434-4.1391436.09508812-6.194.346 1.315-3.818 3.341-7.346 6.194-7.346zm-14.572 22.448c.43704176-1.4649964 1.19585632-2.8138482 2.221-3.948.887674-.9773541 1.9603667-1.7689578 3.156-2.329 2.4901142 2.4517778 3.9817463 5.7404239 4.186 9.229.009.2.009.4.009.6v25.93c-2.4013125-.1129411-4.7867492-.4507525-7.125-1.009.222-1.2.438-2.478.632-3.767v-.026c.2-1.323.38-2.688.533-4.061v-.029c.7123437-5.7088041.6925166-11.4852205-.059-17.189-.1002784-.5285262-.6007141-.8830119-1.1325745-.8022638-.5318603.080748-.90453359.5677907-.8434255 1.1022638.6883435 5.2099568.7350254 10.4846764.139 15.706-2.40308201-.2674727-4.72139481-1.0447894-6.8-2.28zm-6.259 21.124.591-1.992c2.21653596 1.221971 4.65302371 1.9931232 7.169 2.269-.085.7-.168 1.406-.266 2.1-2.64628442-.2120003-5.20932071-1.0249623-7.494-2.377zm7.958 10.837.115-.488c.07-.292.151-.635.239-1.034 2.4688119.5794339 4.9858068.9299185 7.519 1.047v1.045.021.022.924c-1.446.115-5.127.199-7.873-1.537zm15.416-1.576-.591-2.657c-.2073948-.9100159-1.0166504-1.5555903-1.95-1.5555903s-1.7426052.6455744-1.95 1.5555903l-.591 2.657c-.0707162.2971617-.2317669.5651137-.461.767v-14c1.9646239.5319854 4.0353761.5319854 6 0v14c-.2275553-.2026108-.3871322-.4704346-.457-.767zm2.457 3.113v-2.012c2.5332142-.1168547 5.0502298-.4673421 7.519-1.047.088.4.169.743.239 1.034l.143.463c-2.774 1.76-6.456 1.677-7.901 1.562zm8.337-10c-.1-.689-.181-1.394-.266-2.1 2.5194333-.2768348 4.9590622-1.0500524 7.178-2.275l.592 1.993c-2.2878542 1.3535324-4.8542507 2.1675015-7.504 2.38z"/></g></g></svg>