<svg height="512" viewBox="0 0 60 44" width="512" xmlns="http://www.w3.org/2000/svg"><g id="Page-1" fill="none" fill-rule="evenodd"><g id="016---Boxing-Ring" fill="rgb(0,0,0)" fill-rule="nonzero"><path id="Shape" d="m58 0h-5c-1.1045695 0-2 .8954305-2 2v2h-2.142c-.4490235-1.76420237-2.0375517-2.99906467-3.858-2.99906467s-3.4089765 1.2348623-3.858 2.99906467h-22.284c-.4490235-1.76420237-2.0375517-2.99906467-3.858-2.99906467s-3.4089765 1.2348623-3.858 2.99906467h-2.142v-2c0-1.1045695-.8954305-2-2-2h-5c-1.1045695 0-2 .8954305-2 2v19c.002145.7113268.38324874 1.3675874 1 1.722v14.278c0 1.1045695.8954305 2 2 2h15v3c0 1.1045695.8954305 2 2 2h20c1.1045695 0 2-.8954305 2-2v-3h15c1.1045695 0 2-.8954305 2-2v-14.278c.6167513-.3544126.997855-1.0106732 1-1.722v-19c0-1.1045695-.8954305-2-2-2zm-5 2h5v2h-2c-.5522847 0-1 .44771525-1 1s.4477153 1 1 1h2v15h-5zm-41.858 10c.2020609.7765133.6343313 1.4737236 1.24 2-.6056687.5262764-1.0379391 1.2234867-1.24 2h-2.142v-4zm7.716-6h22.284c.2020609.77651329.6343313 1.47372358 1.24 2-.6056687.52627642-1.0379391 1.22348671-1.24 2h-22.284c-.2020609-.77651329-.6343313-1.47372358-1.24-2 .6056687-.52627642 1.0379391-1.22348671 1.24-2zm32.142 6v4h-2.142c-.2020609-.7765133-.6343313-1.4737236-1.24-2 .6056687-.5262764 1.0379391-1.2234867 1.24-2zm-42 9v-3h2.142c.4490235 1.7642024 2.0375517 2.9990647 3.858 2.9990647s3.4089765-1.2348623 3.858-2.9990647h22.284c.4490235 1.7642024 2.0375517 2.9990647 3.858 2.9990647s3.4089765-1.2348623 3.858-2.9990647h2.142v3c.0019998.3521367.0979706.6973555.278 1h-42.556c.18002935-.3026445.27600017-.6478633.278-1zm9.858-9h22.284c.2020609.7765133.6343313 1.4737236 1.24 2-.6056687.5262764-1.0379391 1.2234867-1.24 2h-22.284c-.2020609-.7765133-.6343313-1.4737236-1.24-2 .6056687-.5262764 1.0379391-1.2234867 1.24-2zm28.142 5c0 1.1045695-.8954305 2-2 2s-2-.8954305-2-2 .8954305-2 2-2 2 .8954305 2 2zm-30 0c0 1.1045695-.8954305 2-2 2s-2-.8954305-2-2 .8954305-2 2-2 2 .8954305 2 2zm30-6c0 1.1045695-.8954305 2-2 2s-2-.8954305-2-2 .8954305-2 2-2 2 .8954305 2 2zm-30 0c0 1.1045695-.8954305 2-2 2s-2-.8954305-2-2 .8954305-2 2-2 2 .8954305 2 2zm-9 13h44v3h-44zm43-14h-2.142c-.2020609-.77651329-.6343313-1.47372358-1.24-2 .6056687-.52627642 1.0379391-1.22348671 1.24-2h2.142zm-6-7c1.1045695 0 2 .8954305 2 2s-.8954305 2-2 2-2-.8954305-2-2 .8954305-2 2-2zm-30 0c1.1045695 0 2 .8954305 2 2s-.8954305 2-2 2-2-.8954305-2-2 .8954305-2 2-2zm-3.858 3c.2020609.77651329.6343313 1.47372358 1.24 2-.6056687.52627642-1.0379391 1.22348671-1.24 2h-2.142v-4zm-4.142-4v3 16h-5v-15h2c.55228475 0 1-.44771525 1-1s-.44771525-1-1-1h-2v-2zm-4 21h3v14h-3zm35 13h-16v-2c0-.5522847.4477153-1 1-1h14c.5522847 0 1 .4477153 1 1zm-18 6v-3c0-.5522847.4477153-1 1-1h18c.5522847 0 1 .4477153 1 1v3zm21.22-5c-.3328299-.3688189-.7520424-.6492102-1.22-.816v-2.184c0-1.6568542-1.3431458-3-3-3h-14c-1.6568542 0-3 1.3431458-3 3v2.184c-.4679576.1667898-.8871701.4471811-1.22.816h-10.78v-4h4c.5522847 0 1-.4477153 1-1s-.4477153-1-1-1h-4v-2h44v2h-4c-.5522847 0-1 .4477153-1 1s.4477153 1 1 1h4v4zm12.78 0v-14h3v14z"/></g></g></svg>