<svg height="512" viewBox="0 0 60 40" width="512" xmlns="http://www.w3.org/2000/svg"><g id="Page-1" fill="none" fill-rule="evenodd"><g id="017---World-Title" fill="rgb(0,0,0)" fill-rule="nonzero"><path id="Shape" d="m2.494 15.285s-.011.006-.015.01c-.136.137-3.317 3.438-2.266 10.847.028.2.785 4.825 9.305 7.337 4.3521327 1.217281 8.5991884 2.7830066 12.7 4.682 2.4449037 1.151472 5.1050578 1.7746847 7.807 1.829 2.6855424-.0605821 5.3284885-.6840148 7.758-1.83 4.1008105-1.898728 8.3478717-3.4641213 12.7-4.681 8.521-2.512 9.278-7.142 9.306-7.338 1.051-7.408-2.13-10.709-2.266-10.846 0 0-.011-.005-.015-.01s-.007-.011-.012-.016c-3.8352005-3.5633574-8.4405461-6.19420124-13.458-7.688-1.6341543-.52526687-3.4207893-.2406264-4.8108172.76644269s-2.2171561 2.61608851-2.2271828 4.33255731c.0047279.2797146.0318142.5586033.081.834-2.2392418-.9290241-4.6304932-1.4375125-7.054-1.5-.0179861-.0010008-.0360139-.0010008-.054 0-2.4235068.0624875-4.8147582.5709759-7.054 1.5.4158772-2.3211438-.7822278-4.63156974-2.919-5.629-1.2475843-.63449052-2.6968511-.74464344-4.026-.306-5.0200456 1.49360115-9.62785525 4.1251686-13.465 7.69-.009.005-.009.012-.015.016zm40.916-5.8c4.4261428 1.3300798 8.5173228 3.5897749 12 6.628-2.485 2.4-7.855 1.49-10.994.673-1.5665624-.425172-3.0771272-1.0347688-4.5-1.816-.5913595-.6152686-.9199027-1.4366265-.916-2.29.0060025-1.0758673.5239899-2.0845703 1.3948726-2.7163058.8708827-.63173554 1.9905534-.81098453 3.0151274-.4826942zm-13.41 4.525c2.7900418.0605411 5.5227387.8038869 7.959 2.165 1.8598394 1.1178605 3.865103 1.9736057 5.959 2.543 6.014 1.566 10.4 1.183 12.822-1.091.712 1.273 1.681 3.906 1.067 8.231-.005.036-.705 3.584-7.893 5.7-4.4554815 1.2474378-8.8029457 2.8526554-13 4.8-2.1580076 1.0178588-4.5047204 1.5740536-6.89 1.633-2.4015519-.0528664-4.7653644-.6084765-6.939-1.631-4.1971212-1.9471837-8.5445722-3.5523964-13-4.8-7.169-2.114-7.888-5.684-7.892-5.7-.614-4.329.356-6.962 1.067-8.233 2.421 2.275 6.808 2.657 12.82 1.092 2.0946685-.5689913 4.1006469-1.4247543 5.961-2.543 2.4361712-1.3614621 5.1688734-2.1051526 7.959-2.166zm-13.4-4.531c1.023278-.32077993 2.138016-.13801413 3.0052879.49272909.867272.63074321 1.3846063 1.63493911 1.3947121 2.70727091.002057.8524108-.3275094 1.6722026-.919 2.286-1.4228485.7812824-2.9334195 1.3908817-4.5 1.816-3.139.817-8.508 1.727-10.992-.673 3.48591241-3.0397926 7.5809459-5.2998856 12.011-6.629z"/><path id="Shape" d="m21.829 20.239c-.008.011-.008.024-.015.036-2.4186891 3.4334752-2.4186891 8.0165248 0 11.45.007.012.007.025.015.036s.028.023.04.038c1.8707444 2.6367312 4.903866 4.2026725 8.1368264 4.2008841 3.2329604-.0017885 6.2643477-1.5710847 8.1321736-4.2098841.009-.012.024-.016.033-.029s.008-.024.015-.036c2.4186891-3.4334752 2.4186891-8.0165248 0-11.45-.007-.012-.007-.025-.015-.036s-.028-.024-.04-.039c-1.8699219-2.634482-4.9003494-4.1997194-8.131-4.1997194s-6.2610781 1.5652374-8.131 4.1997194c-.011.015-.029.023-.04.039zm16.171 5.761c.0014082 1.3312074-.3310672 2.6415109-.967 3.811-.989608-.567233-2.048378-1.0041857-3.15-1.3.077-.828.117-1.675.117-2.511s-.04-1.683-.117-2.512c1.1016472-.29574 2.1604266-.7326965 3.15-1.3.636095 1.1697864.9685755 2.4804541.967 3.812zm-10 0c0-.77.035-1.479.091-2.14.6327548.0867768 1.2703552.1335364 1.909.14.6386448-.0064636 1.2762452-.0532232 1.909-.14.056.661.091 1.37.091 2.14s-.035 1.478-.091 2.139c-1.2671221-.168005-2.5508779-.168005-3.818 0-.056-.661-.091-1.37-.091-2.139zm.35 4.12c1.0952219-.1449955 2.2047781-.1449955 3.3 0-.472 2.557-1.294 3.88-1.65 3.88s-1.178-1.323-1.65-3.88zm3.3-8.24c-1.0952219.1449955-2.2047781.1449955-3.3 0 .472-2.557 1.294-3.88 1.65-3.88s1.178 1.323 1.65 3.88zm-5.533 6.632c-1.1016472.29574-2.1604266.7326965-3.15 1.3-1.2893664-2.3770811-1.2893664-5.2449189 0-7.622.989608.567233 2.048378 1.0041857 3.15 1.3-.077.827-.117 1.674-.117 2.51s.04 1.683.117 2.512zm-1.967 2.927c.7102842-.3872598 1.460295-.6967189 2.237-.923.1728606 1.0221103.457571 2.0221179.849 2.982-1.1754675-.4356809-2.2324163-1.1408843-3.086-2.059zm8.614 2.061c.391429-.9598821.6761394-1.9598897.849-2.982.7768321.2259187 1.5268812.5353936 2.237.923-.8535837.9181157-1.9105325 1.6233191-3.086 2.059zm3.086-12.939c-.7102842.3872598-1.460295.6967189-2.237.923-.1723927-1.0222161-.4571176-2.0222744-.849-2.982 1.1754675.4356809 2.2324163 1.1408843 3.086 2.059zm-8.614-2.061c-.391429.9598821-.6761394 1.9598897-.849 2.982-.7768321-.2259187-1.5268812-.5353936-2.237-.923.8535837-.9181157 1.9105325-1.6233191 3.086-2.059z"/><path id="Shape" d="m51 29.01c.1307861.0002121.260305-.0256237.381-.076 3.1-1.279 4.1-2.738 4.384-3.306.2485281-.4940187.0495187-1.0959719-.4445-1.3445s-1.0959719-.0495187-1.3445.4445c-.063.125-.689 1.253-3.357 2.353-.4475756.1782119-.7044695.6502097-.6111216 1.1228296.093348.4726199.5104008.8115054.9921216.8061704z"/><path id="Shape" d="m9.381 27.085c-2.668-1.1-3.294-2.228-3.357-2.353-.24852814-.4940187-.85048129-.6930281-1.3445-.4445s-.69302814.8504813-.4445 1.3445c.286.568 1.282 2.027 4.384 3.306.12097516.0490065.25048397.0734806.381.072.47782129.0004942.8892331-.3371148.98200491-.8058437.09277179-.4687289-.15901972-.9376005-.60100491-1.1191563z"/><path id="Shape" d="m14.5 22c-1.9329966 0-3.5 1.5670034-3.5 3.5s1.5670034 3.5 3.5 3.5 3.5-1.5670034 3.5-3.5-1.5670034-3.5-3.5-3.5zm0 5c-.8284271 0-1.5-.6715729-1.5-1.5s.6715729-1.5 1.5-1.5 1.5.6715729 1.5 1.5-.6715729 1.5-1.5 1.5z"/><path id="Shape" d="m45.5 29c1.9329966 0 3.5-1.5670034 3.5-3.5s-1.5670034-3.5-3.5-3.5-3.5 1.5670034-3.5 3.5 1.5670034 3.5 3.5 3.5zm0-5c.8284271 0 1.5.6715729 1.5 1.5s-.6715729 1.5-1.5 1.5-1.5-.6715729-1.5-1.5.6715729-1.5 1.5-1.5z"/><path id="Shape" d="m15 6c.4043959-.00008635.7689341-.2437275.923678-.61734544s.0692299-.80366031-.216678-1.08965456l-2-2c-.3923789-.37897221-1.0160848-.37355237-1.4018186.01218142-.3857338.3857338-.3911536 1.00943969-.0121814 1.40181858l2 2c.1874927.18754937.4418052.29294336.707.293z"/><path id="Shape" d="m19 5c.5522847 0 1-.44771525 1-1v-3c0-.55228475-.4477153-1-1-1s-1 .44771525-1 1v3c0 .55228475.4477153 1 1 1z"/><path id="Shape" d="m45 6c.2651948-.00005664.5195073-.10545063.707-.293l2-2c.3789722-.39237889.3735524-1.01608478-.0121814-1.40181858-.3857338-.38573379-1.0094397-.39115363-1.4018186-.01218142l-2 2c-.2859079.28599425-.3714219.71603662-.216678 1.08965456s.5192821.61725909.923678.61734544z"/><path id="Shape" d="m41 5c.5522847 0 1-.44771525 1-1v-3c0-.55228475-.4477153-1-1-1s-1 .44771525-1 1v3c0 .55228475.4477153 1 1 1z"/></g></g></svg>