<svg height="512" viewBox="0 0 60 58" width="512" xmlns="http://www.w3.org/2000/svg"><g id="Page-1" fill="none" fill-rule="evenodd"><g id="020---Bandaged-Hand" fill="rgb(0,0,0)" fill-rule="nonzero"><path id="Shape" d="m58.537 20.113c-.8098343-.855377-1.8898877-1.405293-3.058-1.557 1.1206506-1.6814666 1.1502824-3.8640379.0756935-5.5753082-1.0745889-1.7112704-3.0533546-2.6326724-5.0546935-2.3536918.0333087-.2375476.0500158-.4771285.05-.717-.0049966-1.73912709-.8958766-3.35582407-2.3634505-4.28899865-1.4675739-.93317459-3.309512-1.05417297-4.8865495-.32100135-.1486178-2.70288854-2.383029-4.81877499-5.09-4.82-1.3497869.00417477-2.643431.54067774-3.6 1.493l-4.044 4.047h-10.866c-2.3310767-.0105835-4.3678668 1.57243964-4.933 3.834l-5.31 19.185c-.23978287.8586771-.69561552 1.64158-1.324 2.274l-7.541 7.531c-.78820617.791974-.78820617 2.072026 0 2.864l15.2 15.18c.791974.7882062 2.072026.7882062 2.864 0l6.72-6.711c.6833925-.6769431 1.5406374-1.1517675 2.477-1.372l3.691-.85c5.222-1.2 8.64-2.579 10.158-4.095l8.744-8.592 8.092-8.083c1.9425358-1.9573125 1.9420892-5.115237-.001-7.072zm-41.837-9.755c.3402901-1.37848573 1.5801498-2.34474967 3-2.338l8.866-.00003514-3.533 3.53303514c-.8134467.8119057-1.5292951 1.7160292-2.133 2.694-.8325521 1.3419257-1.4506511 2.8055247-1.832 4.338l-6.094-2zm-2.257 8.159 6.6 2.164c8.7 20.687 5.43 12.911 6.192 14.723l-15.357-7.612zm2.763 36.956-15.199-15.216 5.113-5.106 15.919 14.529zm13.894-9.468-3.7.852c-1.0630391.2563647-2.0543982.7496513-2.9 1.443l-15.964-14.564 1.011-1.009c.8249732-.8333826 1.4345418-1.8551651 1.776-2.977l17.116 8.484 3.213 7.638c-.186.045-.363.089-.552.133zm9.2-3.568-.006.006c-.6.6-2.25 1.706-6.682 2.928.041.1-8.157-19.357-10.779-25.591l.2-.779c.3208163-1.3096059.8498872-2.5591856 1.567-3.701.567625-.9208562 1.248617-1.7668048 2.027-2.518l6.951 12.85c.021.038.044.074.068.109l8.2 15.172zm3.031-2.979-7.981-14.773c-.0206156-.038327-.0440116-.0750921-.07-.11l-7.18-13.265 3.584-3.583.807-.808 17.929 25.549-1.381 1.379zm13.792-13.686-5.267 5.261-17.925-25.549 2.1-2.1c.5802703-.5745365 1.3624334-.89903189 2.179-.904 1.7120827 0 3.1 1.38791728 3.1 3.1.0012846.81566986-.3247341 1.59775449-.905 2.171-.3805981.39099945-.3774961 1.01491767.006971 1.40211341.384467.38719573 1.0083477.39471 1.402029.01688659l1.449-1.439c1.2227726-1.17222182 3.1522274-1.17222182 4.375 0 .5806849.57785142.9071495 1.36328869.9071495 2.1825 0 .8192113-.3264646 1.6046486-.9071495 2.1825-.4051008.3761059-.4286059 1.0093991-.0525 1.4145.3761059.4051008 1.0093991.4286059 1.4145.0525 2.465-2.172 3.88-.24 4.507.014 1.1671527 1.1708093 1.1671527 3.0651907 0 4.236l-2.17 2.17c-.3704987.3927896-.362269 1.0087668.0185913 1.3915178.3808603.3827511.9967892.3940312 1.3914087.0254822 2.069-2.07 4.276.091 4.376.13 1.1634788 1.1746643 1.1634788 3.0673357 0 4.242z"/></g></g></svg>