<svg height="512" viewBox="0 0 50 60" width="512" xmlns="http://www.w3.org/2000/svg"><g id="Page-1" fill="none" fill-rule="evenodd"><g id="021---Scales" fill="rgb(0,0,0)" fill-rule="nonzero" transform="translate(0 -1)"><path id="Shape" d="m5.55 53c.95966563 4.6511372 5.0508998 7.9909202 9.8 8h19.3c4.7491002-.0090798 8.8403344-3.3488628 9.8-8l5.32-26c.6006455-2.9425495-.1529927-5.9992501-2.0526377-8.3253459-1.8996449-2.3260959-4.7441353-3.6752671-7.7473623-3.6746541h-.021c-.5079453-7.88345605-7.050197-14.01774458-14.95-14.01774458s-14.4420547 6.13428853-14.95 14.01774458h-.019c-3.00322699-.000613-5.84771741 1.3485582-7.74736235 3.6746541-1.89964493 2.3260958-2.65328312 5.3827964-2.05263765 8.3253459zm19.45-50c7.1797017 0 13 5.82029825 13 13 0 7.1797017-5.8202983 13-13 13s-13-5.8202983-13-13c.008266-7.17627506 5.8237249-12.99173398 13-13zm-21.171 16.94c1.51808702-1.8647126 3.79647986-2.9449376 6.201-2.94h.021c.5079453 7.8834561 7.050197 14.0177446 14.95 14.0177446s14.4420547-6.1342885 14.95-14.0177446h.021c2.4027567-.0007908 4.6786307 1.0784184 6.1985737 2.9393358 1.5199431 1.8609174 2.1229778 4.306453 1.6424263 6.6606642l-5.321 26c-.7676059 3.7218133-4.0418583 6.3939907-7.842 6.4h-19.3c-3.7994908-.0072526-7.0727714-2.6789776-7.841-6.4l-5.319-26c-.48568656-2.3535668.11652701-4.8006335 1.639-6.66z"/><path id="Shape" d="m25 27c6.0751322 0 11-4.9248678 11-11 0-6.07513225-4.9248678-11-11-11s-11 4.92486775-11 11c.0071635 6.0721626 4.9278374 10.9928365 11 11zm0-20c4.9705627 0 9 4.0294373 9 9s-4.0294373 9-9 9-9-4.0294373-9-9c.006061-4.9680501 4.0319499-8.99393904 9-9z"/><path id="Shape" d="m5.436 32.479 4.034 19.721c.5755896 2.7908094 3.0304573 4.7947831 5.88 4.8h5.65c1.6568542 0 3-1.3431458 3-3v-18.419c-.0066989-1.4239071-1.0108816-2.6480418-2.406-2.933-3.1525547-.6424483-6.0572828-2.1685144-8.375-4.4-1.45277-1.4274222-3.66760629-1.7381459-5.45707481-.7655836-1.78946851.9725622-2.73348039 3.0000953-2.32592519 4.9955836zm3.146-3.162c.41080502-.2565867.88564862-.3921077 1.37-.391.7022448.0026206 1.3762629.2767428 1.881.765 2.5922814 2.4949371 5.8412216 4.2003966 9.367 4.917.4631003.0945186.7967857.5003634.8.973v18.419c0 .5522847-.4477153 1-1 1h-5.65c-1.8998328-.0030928-3.5366234-1.3392484-3.92-3.2l-4.03-19.722c-.21738908-1.0764718.25302308-2.1752941 1.182-2.761z"/><path id="Shape" d="m29 57h5.65c2.8494423-.0049199 5.3041866-2.0091337 5.879-4.8l4.035-19.722c.3816614-1.8926385-.4462028-3.8241888-2.08-4.853l-.53.848.525-.852c-1.8186546-1.1242574-4.1692103-.8656963-5.7.627-2.3174564 2.2318469-5.2222957 3.7579715-8.375 4.4-1.3943237.2857827-2.3974978 1.5097052-2.404 2.933v18.419c0 1.6568542 1.3431458 3 3 3zm-1-21.419c.0032143-.4726366.3368997-.8784814.8-.973 3.5239973-.7174942 6.771093-2.4228958 9.362-4.917.5101252-.4929011 1.1906593-.7701292 1.9-.774.4562544-.0027701.9041671.1222851 1.293.361h.006c.019.014.038.027.058.039.9277121.5848233 1.3976852 1.6819579 1.181 2.757l-4.03 19.726c-.3833766 1.8607516-2.0201672 3.1969072-3.92 3.2h-5.65c-.5522847 0-1-.4477153-1-1z"/><path id="Shape" d="m25 19c1.4594373.0027654 2.7080809-1.0474881 2.9553873-2.485822s-.5788398-2.8453257-1.9553873-3.330178v-3.184c0-.55228475-.4477153-1-1-1s-1 .44771525-1 1v3.184c-1.3765475.4848523-2.2026937 1.8918441-1.9553873 3.330178s1.49595 2.4885874 2.9553873 2.485822zm0-4c.5522847 0 1 .4477153 1 1s-.4477153 1-1 1-1-.4477153-1-1 .4477153-1 1-1z"/><path id="Shape" d="m5.128 27c.06717389.0001635.13418866-.006538.2-.02.2599387-.0529946.48816778-.2071045.63445513-.428411.14628734-.2213065.19864341-.4916715.14554487-.751589-.36116605-1.7651057.50228464-3.5538284 2.109-4.369.4674354-.2615195.64581429-.8449023.40456393-1.3231141-.24125037-.4782118-.81645406-.681424-1.30456393-.4608859-2.41161091 1.2212806-3.70875489 3.9044197-3.168 6.553.09497846.4652983.50410708.799622.979.8z"/><path id="Shape" d="m41.809 21.43c1.6071329.8152784 2.4706585 2.6045657 2.109 4.37-.1104569.541239.238761 1.069543.78 1.18.541239.1104569 1.069543-.238761 1.18-.78.5410872-2.6480975-.7551654-5.3310866-3.166-6.553-.4881099-.2205381-1.0633136-.0173259-1.3045639.4608859-.2412504.4782118-.0628715 1.0615946.4045639 1.3231141z"/></g></g></svg>