<svg height="512" viewBox="0 0 60 43" width="512" xmlns="http://www.w3.org/2000/svg"><g id="Page-1" fill="none" fill-rule="evenodd"><g id="022---Bag" fill="rgb(0,0,0)" fill-rule="nonzero" transform="translate(0 -1)"><path id="Shape" d="m59 25h-7v-7c-.0033061-2.7600532-2.2399468-4.9966939-5-5h-.006c.056-2.062-.154-6.53-2.737-9.413-1.6013399-1.7439551-3.8916515-2.69090032-6.257-2.587h-16c-2.3653485-.10390032-4.6556601.8430449-6.257 2.587-2.583 2.883-2.793 7.351-2.737 9.413h-1.006c-2.76005315.0033061-4.99669388 2.2399468-5 5v7h-6c-.55228475 0-1 .4477153-1 1v9c.00330612 2.7600532 2.23994685 4.9966939 5 5h2.184c.42225455 1.1943509 1.54921457 1.9947486 2.816 2h5.184c.4222546 1.1943509 1.5492146 1.9947486 2.816 2h23c1.2667854-.0052514 2.3937454-.8056491 2.816-2h5.184c1.2667854-.0052514 2.3937454-.8056491 2.816-2h3.184c2.7600532-.0033061 4.9966939-2.2399468 5-5v-9c0-.5522847-.4477153-1-1-1zm-14.01-12h-2.99c.028-2.1-.057-6.641-1.153-9.463.7320643.31405909 1.3861598.78517175 1.916 1.38 2.126 2.368 2.276 6.326 2.227 8.083zm-24.99 0c-.036032-2.0057036.0779524-4.01129412.341-6h19.318c.2630625 1.98870448.377047 3.9942961.341 6zm18-10c.1637117.00586805.3157912.08614247.413.218.4136962.52164344.7021047 1.13130428.843 1.782h-18.512c.1408953-.65069572.4293038-1.26035656.843-1.782.09711-.1319723.2492493-.21227829.413-.218zm-20.768 1.921c.5312436-.59645637 1.1870329-1.06892504 1.921-1.384-1.096 2.821-1.181 7.363-1.153 9.463h-2.992c-.051-1.753.092-5.7 2.224-8.079zm-15.232 30.079v-8h5v11h-2c-1.65685425 0-3-1.3431458-3-3zm14-3v-4c0-1.1045695.8954305-2 2-2h23c1.1045695 0 2 .8954305 2 2v4zm25 10h-23c-.5522847 0-1-.4477153-1-1v-7h25v7c0 .5522847-.4477153 1-1 1zm8-2h-5v-6.278c.6167513-.3544126.997855-1.0106732 1-1.722v-4c0-2.209139-1.790861-4-4-4h-23c-2.209139 0-4 1.790861-4 4v4c.002145.7113268.3832487 1.3675874 1 1.722v6.278h-5c-.55228475 0-1-.4477153-1-1v-21c0-1.6568542 1.3431458-3 3-3h35c1.6568542 0 3 1.3431458 3 3v21c0 .5522847-.4477153 1-1 1zm9-5c0 1.6568542-1.3431458 3-3 3h-3v-11h6z"/><path id="Shape" d="m15 18h-2c-.5522847 0-1 .4477153-1 1s.4477153 1 1 1h2c.5522847 0 1-.4477153 1-1s-.4477153-1-1-1z"/><path id="Shape" d="m46 18h-27c-.5522847 0-1 .4477153-1 1s.4477153 1 1 1h27c.5522847 0 1-.4477153 1-1s-.4477153-1-1-1z"/></g></g></svg>