<svg height="512" viewBox="0 0 60 60" width="512" xmlns="http://www.w3.org/2000/svg"><g id="Page-1" fill="none" fill-rule="evenodd"><g id="023---Punch-Bag" fill="rgb(0,0,0)" fill-rule="nonzero"><path id="Shape" d="m3.79 58.062c.3561089.3007248.8049771.469536 1.271.478.07007767.0021634.14022195-.0001748.21-.007 2.475-.3 4.986-.55 7.479-.757.3504069 1.308586 1.534317 2.2199795 2.889 2.224h1.729c1.5419239-.0005825 2.8300095-1.1747205 2.973-2.71 6.416-.3 12.9-.3 19.318 0 .1429905 1.5352795 1.4310761 2.7094175 2.973 2.71h1.729c1.354683-.0040205 2.5385931-.915414 2.889-2.224 2.493.207 5 .456 7.479.757.041 0 .185.007.21.007.4660229-.008464.9148911-.1772752 1.271-.478 1.914-1.513 3.111-6.607 3.556-10.51.463-4.066.456-10.9-2.3-11.825-.163898-.0726171-.3399143-.1139928-.519-.122-4.444-.528-8.851-.92-13.117-1.175l-8.83-16.678v-2.752c-.0029983-2.3751008-1.6735832-4.4215673-4-4.9v-2.2c2.3264168-.47843265 3.9970017-2.52489917 4-4.9v-2c0-.55228475-.4477153-1-1-1h-8c-.5522847 0-1 .44771525-1 1v2c.0029983 2.37510083 1.6735832 4.42156735 4 4.9v2.2c-2.3264168.4784327-3.9970017 2.5248992-4 4.9v2.752l-8.83 16.678c-4.259.254-8.658.646-13.094 1.173-.14579652.0210842-.28984981.0528361-.431.095-2.865.781-2.88 7.736-2.411 11.854.445 3.903 1.642 8.997 3.556 10.51zm4.173-11.4c-.348-4-1.26-7.406-2.433-9.32 3.268-.356 6.5-.639 9.666-.845-2.5522352 6.092306-3.5023957 12.7365447-2.76 19.3-1.706.144-3.41266667.3106667-5.12.5.904-2.57.896-6.783.647-9.635zm12.237 8.638c-.5723757-6.5122543.351136-13.0691879 2.7-19.17 4.683-.164 9.451-.167 14.2-.008 2.3506627 6.1031356 3.2742134 12.6630818 2.7 19.178-6.509-.313-13.091-.313-19.6 0zm3.594-21.2 6.206-13.679 6.2 13.679c-4.147-.123-8.3-.121-12.406 0zm28.89 22.2c-1.706-.1873333-3.4126667-.354-5.12-.5.7418069-6.5638075-.2097567-13.2082279-2.764-19.3 3.158.206 6.389.488 9.667.844-1.174 1.914-2.086 5.323-2.434 9.321-.244 2.849-.253 7.062.651 9.635zm5.094-8.969c-.618 5.434-2.08 8.7-2.807 9.177-.626-.619-1.423-4.149-.942-9.667.535-6.147 2.244-9.092 2.784-9.233.562.245 1.673 3.505.965 9.718zm-15.53-11.6v.008c3.1525199 6.6670826 4.2323993 14.1266106 3.1 21.414-.0801391.4904765-.5030229.8511964-1 .853h-1.716c-.2845105.0016263-.5555378-.121103-.742-.336-.1952178-.2216299-.2836446-.5176038-.242-.81.022-.158.03-.31.05-.467v-.008c.8536348-7.4075948-.2057444-14.9103546-3.077-21.792l-7.069-15.593h1.848l8.724 16.478c.002.009.048.095.124.247zm-15.248-32.731v-1h6v1c-.0057895 1.27996821-.8230414 2.41528577-2.035 2.827-.0751014-.47474456-.4843519-.82434352-.965-.82434352s-.8898986.34959896-.965.82434352c-1.2119586-.41171423-2.0292105-1.54703179-2.035-2.827zm0 12c.0052514-1.2667854.8056491-2.3937454 2-2.816v.816c0 .5522847.4477153 1 1 1s1-.4477153 1-1v-.816c1.1943509.4222546 1.9947486 1.5492146 2 2.816v2h-6zm-.4 4h1.846l-7.062 15.577c-.013.027-.049.106-.1.217v.005c-2.7948296 6.8276057-3.8211937 14.250172-2.984 21.58v.007c.02.158.028.31.05.468.0416446.2923962-.0467822.5883701-.242.81-.1864622.214897-.4574895.3376263-.742.336h-1.727c-.4950823-.0042333-.9151789-.3643764-.995-.853-1.1330574-7.2880387-.0531586-14.7483979 3.1-21.416v-.006c.079-.158.127-.248.132-.257zm-23.464 18.607c.59.137 2.3 3.083 2.835 9.229.481 5.518-.316 9.048-.942 9.667-.727-.48-2.189-3.743-2.807-9.177-.708-6.213.403-9.473.914-9.719z"/><path id="Shape" d="m37.034 51.181c-4.667-.16-9.4-.16-14.068 0-.2650894.0088687-.5157963.1226888-.6969598.3164175-.1811636.1937287-.2779414.4514942-.2690402.7165825.0039734.2669194.116442.5207184.3115086.7029566s.4559186.2772088.7224914.2630434c4.622-.159 9.31-.159 13.932 0h.034c.5522847.0093888 1.0076111-.4307153 1.0169999-.983.0093889-.5522847-.4307152-1.0076111-.9829999-1.017z"/></g></g></svg>