<svg height="512" viewBox="0 0 60 60" width="512" xmlns="http://www.w3.org/2000/svg"><g id="Page-1" fill="none" fill-rule="evenodd"><g id="024---Scales" fill="rgb(0,0,0)" fill-rule="nonzero" transform="translate(0 -1)"><path id="Shape" d="m57 50h-7v-29.841c4.3400607-1.8941578 6.7565499-6.5727403 5.7890631-11.20824783-.9674867-4.63550753-5.0536686-7.95690356-9.7890631-7.95690356s-8.8215764 3.32139603-9.7890631 7.95690356c-.9674868 4.63550753 1.4490024 9.31409003 5.7890631 11.20824783v29.841h-15.556c.3599241-.6053465.5518554-1.2957468.556-2v-14.351c.4673157.2281069.9799922.3480732 1.5.351.9282577 0 1.8184964-.3687489 2.4748737-1.0251263.6563774-.6563773 1.0251263-1.546616 1.0251263-2.4748737v-11.5c-.0033074-3.3123376-2.6876624-5.9966926-6-6h-1.809c1.1863233-1.3939272 1.8287973-3.16969837 1.809-5 0-3.86-2.691-7-6-7s-6 3.14-6 7c-.0197973 1.83030163.6226767 3.6060728 1.809 5h-1.809c-3.3123376.0033074-5.99669262 2.6876624-6 6v11.5c0 1.9329966 1.56700338 3.5 3.5 3.5.5200078-.0029268 1.0326843-.1228931 1.5-.351v14.351c.0041446.7042532.1960759 1.3946535.556 2h-10.556c-1.65685425 0-3 1.3431458-3 3s1.34314575 3 3 3v1c0 2.209139 1.790861 4 4 4h46c2.209139 0 4-1.790861 4-4v-1c1.6568542 0 3-1.3431458 3-3s-1.3431458-3-3-3zm-18.931-38h.931c.5522847 0 1-.4477153 1-1s-.4477153-1-1-1h-.931c.461445-3.6195881 3.3114119-6.46955504 6.931-6.931v.931c0 .55228475.4477153 1 1 1s1-.44771525 1-1v-.931c3.6195881.46144496 6.469555 3.3114119 6.931 6.931h-.931c-.5522847 0-1 .4477153-1 1s.4477153 1 1 1h.931c-.461445 3.6195881-3.3114119 6.469555-6.931 6.931v-.931c0-.5522847-.4477153-1-1-1s-1 .4477153-1 1v.931c-3.6195881-.461445-6.469555-3.3114119-6.931-6.931zm5.931 8.8c1.3197265.269388 2.6802735.269388 4 0v29.2h-4zm-28-12.8c0-2.757 1.794-5 4-5s4 2.243 4 5-1.794 5-4 5-4-2.243-4-5zm-1 40v-25c0-.5522847-.4477153-1-1-1s-1 .4477153-1 1v7.5c0 .8284271-.6715729 1.5-1.5 1.5s-1.5-.6715729-1.5-1.5v-11.5c0-2.209139 1.790861-4 4-4h12c2.209139 0 4 1.790861 4 4v11.5c0 .8284271-.6715729 1.5-1.5 1.5s-1.5-.6715729-1.5-1.5v-7.5c0-.5522847-.4477153-1-1-1s-1 .4477153-1 1v25c0 1.1045695-.8954305 2-2 2s-2-.8954305-2-2v-15c0-.5522847-.4477153-1-1-1s-1 .4477153-1 1v15c0 1.1045695-.8954305 2-2 2s-2-.8954305-2-2zm42 6h-41c-.5522847 0-1 .4477153-1 1s.4477153 1 1 1h39v1c0 1.1045695-.8954305 2-2 2h-46c-1.1045695 0-2-.8954305-2-2v-1h6c.5522847 0 1-.4477153 1-1s-.4477153-1-1-1h-8c-.55228475 0-1-.4477153-1-1s.44771525-1 1-1h54c.5522847 0 1 .4477153 1 1s-.4477153 1-1 1z"/><path id="Shape" d="m46 12c.2651948-.0000566.5195073-.1054506.707-.293l3-3c.2599566-.25107447.3642126-.62287789.2726972-.97250732-.0915155-.34962944-.3645604-.6226744-.7141899-.71418984-.3496294-.09151544-.7214328.01274058-.9725073.27269716l-3 3c-.2859079.2859943-.3714219.7160366-.216678 1.0896546.1547439.3736179.5192821.6172591.923678.6173454z"/></g></g></svg>