<svg height="512" viewBox="0 0 60 60" width="512" xmlns="http://www.w3.org/2000/svg"><g id="Page-1" fill="none" fill-rule="evenodd"><g id="025---Medic" fill="rgb(0,0,0)" fill-rule="nonzero"><path id="Shape" d="m54 10h-1.184c-.4222546-1.19435087-1.5492146-1.99474861-2.816-2h-3c-1.2667854.00525139-2.3937454.80564913-2.816 2h-1.009l-1.928-5.129c-1.1010408-2.92289199-3.893621-4.86142102-7.017-4.871h-8.46c-3.1223446.0092353-5.9143467 1.94644542-7.016 4.868l-1.929 5.132h-1.009c-.4222546-1.19435087-1.5492146-1.99474861-2.816-2h-3c-1.26678543.00525139-2.39374545.80564913-2.816 2h-1.184c-3.31233757.0033074-5.99669262 2.6876624-6 6v24c.00330738 3.3123376 2.68766243 5.9966926 6 6h1.184c.42225455 1.1943509 1.54921457 1.9947486 2.816 2h3c1.2667854-.0052514 2.3937454-.8056491 2.816-2h19.184v8.5c0 3.136 4.514 5.5 10.5 5.5h3.5c.7569456-.0014329 1.4849399-.2910574 2.036-.81 3.107-.965 4.964-2.701 4.964-4.69v-8.857c2.3913614-.8473621 3.9923521-3.1059598 4-5.643v-24c-.0033074-3.3123376-2.6876624-5.9966926-6-6zm-8.5 34c-4.865 0-8.5-1.848-8.5-3.5 0-.748.75-1.534 2.015-2.172 0 .058-.015.113-.015.172 0 2.3 3.27 3.5 6.5 3.5s6.5-1.2 6.5-3.5c0-.059-.011-.115-.015-.172 1.265.638 2.015 1.424 2.015 2.172 0 1.652-3.635 3.5-8.5 3.5zm4.5-5.5c0 .436-1.577 1.5-4.5 1.5s-4.5-1.064-4.5-1.5 1.577-1.5 4.5-1.5 4.5 1.064 4.5 1.5zm-3-28.5h3c.5522847 0 1 .4477153 1 1v24.772c-1.5831637-.4705398-3.222684-.7248438-4.874-.756-.042 0-.084 0-.126 0v-24.016c0-.5522847.4477153-1 1-1zm-26.373-4.43c.8065894-2.14258333 2.8536315-3.56353224 5.143-3.57h8.46c2.2900602.00694009 4.3374604 1.4286573 5.144 3.572l1.664 4.428h-3.2l-1.273-3.384c-.3695332-.96949016-1.2974801-1.61170096-2.335-1.616h-8.46c-1.0385516.00464594-1.9670748.64817291-2.336 1.619l-1.267 3.381h-3.205zm15.073 4.43h-11.4l1-2.676c.0735607-.1956096.2610177-.32483531.47-.324h8.46c.2056649.00159046.3893759.12895818.463.321zm-33.7 30v-24c0-2.209139 1.790861-4 4-4h1v32h-1c-2.209139 0-4-1.790861-4-4zm11 6h-3c-.55228475 0-1-.4477153-1-1v-34c0-.5522847.44771525-1 1-1h3c.5522847 0 1 .4477153 1 1v34c0 .5522847-.4477153 1-1 1zm3-2v-32h28v23.057c-5.222.36-9 2.576-9 5.443v3.5zm29.5 14c-4.865 0-8.5-1.848-8.5-3.5v-10.7c2.5496868 1.56659 5.5104442 2.3329037 8.5 2.2h3.5c.5522847 0 1 .4477153 1 1v10c0 .5522847-.4477153 1-1 1zm6.5-1.341v-9.659c-.0030899-.6835209-.2418502-1.3450565-.676-1.873.9527718-.3074254 1.8546082-.7546364 2.676-1.327v10.7c0 .743-.764 1.529-2 2.159zm6-16.659c-.0036128 1.4264953-.7653325 2.7435086-2 3.458v-2.958c0-1.566-1.127-2.94-3-3.923v-24.577h1c2.209139 0 4 1.790861 4 4z"/><path id="Shape" d="m35 33h3c1.6568542 0 3-1.3431458 3-3v-4c0-1.6568542-1.3431458-3-3-3h-3v-3c0-1.6568542-1.3431458-3-3-3h-4c-1.6568542 0-3 1.3431458-3 3v3h-3c-1.6568542 0-3 1.3431458-3 3v4c0 1.6568542 1.3431458 3 3 3h3v3c0 1.6568542 1.3431458 3 3 3h4c1.6568542 0 3-1.3431458 3-3zm-1-2c-.5522847 0-1 .4477153-1 1v4c0 .5522847-.4477153 1-1 1h-4c-.5522847 0-1-.4477153-1-1v-4c0-.5522847-.4477153-1-1-1h-4c-.5522847 0-1-.4477153-1-1v-4c0-.5522847.4477153-1 1-1h4c.5522847 0 1-.4477153 1-1v-4c0-.5522847.4477153-1 1-1h4c.5522847 0 1 .4477153 1 1v4c0 .5522847.4477153 1 1 1h4c.5522847 0 1 .4477153 1 1v4c0 .5522847-.4477153 1-1 1z"/><path id="Shape" d="m20 18v-2h2c.5522847 0 1-.4477153 1-1s-.4477153-1-1-1h-3c-.5522847 0-1 .4477153-1 1v3c0 .5522847.4477153 1 1 1s1-.4477153 1-1z"/></g></g></svg>