<svg height="512" viewBox="0 0 60 60" width="512" xmlns="http://www.w3.org/2000/svg"><g id="Page-1" fill="none" fill-rule="evenodd"><g id="026---Top-and-Shorts" fill="rgb(0,0,0)" fill-rule="nonzero"><path id="Shape" d="m56 37.905v-5.905c0-1.1045695-.8954305-2-2-2h-12v-4.93c-.0086912-1.4826457-.4834173-2.9250154-1.357-4.123-4.738-6.609-5.495-16.247-5.615-19.054-.0593399-1.06066742-.9356759-1.89094975-1.998-1.893h-2.04c-1.08854-.01114618-1.9819138.85855321-2 1.947-.237 10.173-2.472 22.053-7.99 22.053s-7.753-11.88-7.99-22.048c-.0153647-1.09040933-.9095392-1.96312357-2-1.952h-2.04c-1.06778502.00343356-1.94632367.84155943-2 1.908-.119 2.8-.876 12.43-5.61 19.033-.87535849 1.1995325-1.35115281 2.6440581-1.36 4.129v23.93c.00330612 2.7600532 2.23994685 4.9966939 5 5h17.934l-.464 2.439c-.1671571.8781199.0659755 1.7850402.6358858 2.4736899.5699103.6886496 1.417226 1.0872863 2.3111142 1.0873101h10.283c1.1856334.0003261 2.2602377-.6976572 2.742-1.781l2.558-5.757 2.558 5.757c.4817623 1.0833428 1.5563666 1.7813261 2.742 1.781h10.283c.8938882-.0000238 1.7412039-.3986605 2.3111142-1.0873101.5699103-.6886497.8030429-1.59557.6358858-2.4736899zm-28-.905v-5h26v5zm-7-11c8.51 0 9.821-16.789 9.99-24l2.021-.007c0 .016-.011.03-.011.047-.227 9.695-2.087 25.96-12 25.96s-11.773-16.265-12-25.96c0-.014-.008-.026-.009-.04l2.019-.006c.169 7.217 1.48 24.006 9.99 24.006zm-18.018-3.888c2.25890421-3.3461487 3.85694825-7.0934737 4.708-11.04 1.274 9.249 4.671 18.928 13.31 18.928s12.036-9.68 13.31-18.93c.8522503 3.9491317 2.4512564 7.6990403 4.711 11.048.6279015.8569487.9703924 1.8896689.979 2.952v4.93h-12c-1.1045695 0-2 .8954305-2 2v5.905l-.78 4.095h-13.22c-.5522847 0-1 .4477153-1 1s.4477153 1 1 1h12.839l-.571 3h-22.268v-3h4c.55228475 0 1-.4477153 1-1s-.44771525-1-1-1h-4v-16.93c.00916894-1.0645605.35268793-2.0993153.982-2.958zm2.018 29.888c-1.65685425 0-3-1.3431458-3-3h21.887l-.572 3zm40.386 5.406-3.472-7.812c-.160402-.3613564-.5186429-.5942858-.914-.5942858s-.753598.2329294-.914.5942858l-3.472 7.812c-.1604876.3612446-.5187103.5940502-.914.594h-6.491l1.869-9.794c.0669873-.3510134-.0583773-.7111006-.3288702-.94462s-.6450198-.304994-.9825-.1875c-.3374803.117494-.5866425.4061065-.6536298.75712l-1.94 10.169h-1.756c-.2979044-.0001072-.5802497-.1330285-.7701444-.3625651-.1898946-.2295366-.2675637-.5317855-.2118556-.8244349l3.393-17.813h2.964l-.725 3.813c-.06663.3510134.0590647.71091.3297362.94412.2706716.23321.6451985.3043034.9825001.1865.3373015-.1178034.5861337-.4066065.6527637-.75762l.8-4.186h16.34l3.62 19h-6.492c-.3952897.0000502-.7535124-.2327554-.914-.594zm11.968.232c-.1893926.2305897-.4726064.3635643-.771.362h-1.755l-3.62-19h2.964l3.393 17.813c.0580165.2927575-.0195516.5960451-.211.825z"/></g></g></svg>