<svg height="512" viewBox="0 0 60 60" width="512" xmlns="http://www.w3.org/2000/svg"><g id="Page-1" fill="none" fill-rule="evenodd"><g id="027---Skipping-Rope" fill="rgb(0,0,0)" fill-rule="nonzero"><path id="Shape" d="m58 53.183c-.04-15.5-1.18-22.118-1.752-24.462 1.0650871-.4872332 1.749229-1.5497618 1.752-2.721v-1c0-1.6568542-1.3431458-3-3-3h-1v-11.5c-.0000001-5.79898979-4.7010102-10.49999978-10.5-10.49999978s-10.4999999 4.70100999-10.5 10.49999978v40.5c0 1.6568542-1.3431458 3-3 3s-3-1.3431458-3-3v-40.5c0-5.79898987-4.7010101-10.5-10.5-10.5s-10.5 4.70101013-10.5 10.5v11.5h-1c-1.65685425 0-3 1.3431458-3 3v1c.00312954 1.1717029.68813213 2.2343552 1.754 2.721-.572 2.344-1.712 8.962-1.754 24.462-1.1946951.4223781-1.99517007 1.5498471-2 2.817v1c0 1.6568542 1.34314575 3 3 3h12c1.6568542 0 3-1.3431458 3-3v-1c-.0048299-1.2671529-.8053049-2.3946219-2-2.817-.04-15.5-1.18-22.118-1.752-24.462 1.0650871-.4872332 1.749229-1.5497618 1.752-2.721v-1c0-1.6568542-1.3431458-3-3-3h-1v-11.5c.0000001-2.48528134 2.0147187-4.49999991 4.5-4.49999991s4.4999999 2.01471857 4.5 4.49999991v40.5c.0000001 4.9705627 4.0294373 8.9999998 9 8.9999998s8.9999999-4.0294371 9-8.9999998v-40.5c0-2.48528137 2.0147186-4.5 4.5-4.5s4.5 2.01471863 4.5 4.5v11.5h-1c-1.6568542 0-3 1.3431458-3 3v1c.0031295 1.1717029.6881321 2.2343552 1.754 2.721-.572 2.344-1.712 8.962-1.752 24.462-1.1954839.4217051-1.9968692 1.5493287-2.002 2.817v1c0 1.6568542 1.3431458 3 3 3h12c1.6568542 0 3-1.3431458 3-3v-1c-.0048299-1.2671529-.8053049-2.3946219-2-2.817zm-11.093-19.183h3.093c.5522847 0 1-.4477153 1-1s-.4477153-1-1-1h-2.826c.224-1.487.432-2.445.573-3h6.512c.474 1.826 1.689 8.059 1.738 24h-9.997c-.0522321-6.345292.2505744-12.6885371.907-19zm-34.648-5c.474 1.826 1.689 8.059 1.738 24h-9.997c-.05455736-6.3451613.24591213-12.6884061.9-19h3.1c.55228475 0 1-.4477153 1-1s-.44771525-1-1-1h-2.826c.224-1.487.432-2.445.573-3zm3.741 28c0 .5522847-.4477153 1-1 1h-12c-.55228475 0-1-.4477153-1-1v-1c0-.5522847.44771525-1 1-1h12c.5522847 0 1 .4477153 1 1zm-2-32v1c0 .5522847-.4477153 1-1 1h-8c-.55228475 0-1-.4477153-1-1v-1c0-.5522847.44771525-1 1-1h8c.5522847 0 1 .4477153 1 1zm29.5-21c-3.5880235.0044079-6.4955921 2.91197652-6.5 6.5v40.5c0 3.8659932-3.1340068 7-7 7s-7-3.1340068-7-7v-40.5c0-3.58985087-2.9101491-6.5-6.5-6.5s-6.5 2.91014913-6.5 6.5v11.5h-2v-11.5c.00000007-4.69442032 3.8055797-8.49999987 8.5-8.49999987s8.4999999 3.80557955 8.5 8.49999987v40.5c0 2.7614237 2.2385763 5 5 5s5-2.2385763 5-5v-40.5c0-4.69442037 3.8055796-8.5 8.5-8.5s8.5 3.80557963 8.5 8.5v11.5h-2v-11.5c-.0044079-3.58802348-2.9119765-6.4955921-6.5-6.5zm2.5 21c0-.5522847.4477153-1 1-1h8c.5522847 0 1 .4477153 1 1v1c0 .5522847-.4477153 1-1 1h-8c-.5522847 0-1-.4477153-1-1zm12 32c0 .5522847-.4477153 1-1 1h-12c-.5522847 0-1-.4477153-1-1v-1c0-.5522847.4477153-1 1-1h12c.5522847 0 1 .4477153 1 1z"/></g></g></svg>