<svg height="512" viewBox="0 0 60 46" width="512" xmlns="http://www.w3.org/2000/svg"><g id="Page-1" fill="none" fill-rule="evenodd"><g id="028---Training-Gloves" fill="rgb(0,0,0)" fill-rule="nonzero" transform="translate(-1)"><path id="Shape" d="m17 45c7.627 0 12.906-8.315 15.691-24.713 1.044-6.157-.526-11.2-4.67-15-6.2194958-5.7582718-15.8235042-5.7582718-22.043 0-4.143 3.8-5.713 8.843-4.669 15 2.785 16.398 8.064 24.713 15.691 24.713zm-9.671-38.237c5.457231-5.05214431 13.883769-5.05214431 19.341 0 3.611 3.308 4.974 7.745 4.049 13.189-2.56 15.078-7.304 23.048-13.719 23.048s-11.159-7.97-13.719-23.048c-.924-5.443.438-9.881 4.048-13.189z"/><path id="Shape" d="m17 41c5.23 0 9.4-7.594 11.746-21.383.81-4.8-.312-8.518-3.432-11.385-2.2692968-2.07968451-5.2358846-3.23292142-8.314-3.232-1.1014488.00022843-2.1980047.14650315-3.261.435-.5197206.15493428-.8212219.69589576-.6796293 1.21940854s.6746667.83874971 1.2016293.71059146c3.421287-.91417539 7.0727544-.03255305 9.7 2.342 2.615 2.4 3.509 5.446 2.81 9.576-2.095 12.346-5.75 19.717-9.771 19.717s-7.676-7.371-9.773-19.717c-.663-3.9.149-6.934 2.48-9.266.25312267-.25258677.3522642-.62102591.260079-.96652996-.09218523-.34550405-.3616921-.61558272-.707-.7085s-.71395633.00544319-.967079.25802996c-2.823 2.826-3.816 6.429-3.039 11.018 2.346 13.788 6.516 21.382 11.746 21.382z"/><path id="Shape" d="m17 27c3.3137085 0 6-2.6862915 6-6s-2.6862915-6-6-6-6 2.6862915-6 6c.0033074 3.3123376 2.6876624 5.9966926 6 6zm0-10c2.209139 0 4 1.790861 4 4s-1.790861 4-4 4-4-1.790861-4-4 1.790861-4 4-4z"/><path id="Shape" d="m57 20h-2.743c-.1128245-2.0976131-.4419023-4.1779743-.982-6.208-.7964486-2.9096175-1.9343583-5.71478287-3.39-8.357-.094-.179-.4-.8-.352-.7-1.5192056-2.99825959-4.9914662-4.44870829-8.192-3.422-.808.254-3.246 1.037-3.382 1.061-1.3543048.27410178-2.4322216 1.29917188-2.774 2.638-.3716315 1.58769149-.4442031 3.23072593-.214 4.845.1966919 1.827557.5527127 3.6344299 1.064 5.4 2.978 10.917.85 16.652-1.892 21.222-1.706 2.843-1.775 5.583-.167 6.664.562.378 1.346.495 4.983 1.652 2.7327381.8441869 5.7025784-.0935735 7.455-2.354.255-.344.8-1.055 1.439-1.977 1.3234231-1.8893291 2.4896655-3.8840151 3.487-5.964 2.5504083.4009436 5.1599578.1789637 7.606-.647 1.2013327-.4045829 2.0187188-1.5205831 2.042-2.788 0-.021.012-.039.012-.061v-7.004c0-2.209139-1.790861-4-4-4zm2 4v4.176c-.6269981-.2253443-1.3114143-.234146-1.944-.025-1.1654763.3840385-2.3895796.559394-3.616.518.5473302-2.1815586.8359827-4.4199576.86-6.669h2.7c1.1045695 0 2 .8954305 2 2zm-20.033-4.768c1.337443.7687829 2.1247972 2.2280798 2.033 3.768.05183 1.347586-.5284814 2.6420983-1.569 3.5.1277599-2.4324632-.0279538-4.871531-.464-7.268zm-3.11 18.283c1.6719521-2.6520854 2.802347-5.6089212 3.326-8.7 2.4049109-.8977647 3.9498663-3.2514235 3.817-5.815 0-3.092-1.96-5.644-4.466-5.965-.167-.743-.353-1.506-.569-2.3-.478747-1.6522661-.8133333-3.3429306-1-5.053-.2071999-1.36356951-.1597307-2.75374032.14-4.1.1477344-.73986798.7985313-1.2716524 1.553-1.269 1.532 0 2.66 1.939 3.772 4.108.147.289.287.561.42.8 1.1554546 2.0968029 2.0616148 4.3215941 2.7 6.629.9945454 3.6375609 1.0214334 7.471849.078 11.123-.9172102 3.2074287-2.3891157 6.229421-4.349 8.929-.349.5-.71 1-1.077 1.49-3.114 4.153-4.819 4.283-5.108 4.089-.405-.262-.494-1.866.763-3.966zm10.35 1.817c-.6.869-1.153 1.593-1.384 1.9-1.2411664 1.5983473-3.344285 2.2580632-5.276 1.655l-1.436-.442c1.4147932-1.0902376 2.6582616-2.3862896 3.689-3.845.3833333-.51.7566667-1.0263333 1.12-1.549 2.0923934-2.8901981 3.6627554-6.1243316 4.64-9.556 1.0319571-3.9889106 1.0040355-8.1781992-.081-12.153-.6780057-2.4594282-1.6426177-4.8306822-2.874-7.065-.125-.232-.257-.491-.4-.765-.6838744-1.53168918-1.6450261-2.92374876-2.835-4.106l.572-.181c2.3014984-.72845668 4.7894418.33792633 5.849 2.507.113.226.217.434.329.646 1.3829821 2.5070149 2.464499 5.1688489 3.222 7.93 1.2654505 4.6507149 1.2926848 9.5515082.079 14.216-1.0910817 3.8804248-2.8559501 7.5387866-5.214 10.808zm12.108-7.381c-1.9811776.6497701-4.0779848.8703251-6.151.647.262-.657.506-1.313.719-1.971 1.622346.1238037 3.2532126-.0722401 4.8-.577.3918907-.1302455.823446-.0030125 1.082.319.0841699.0909909.1476256.1991385.186.317.0837384.2520809.0637438.5271204-.0555725.7644398-.1193164.2373195-.3281496.4174171-.5804275.5005602z"/></g></g></svg>