<svg height="512" viewBox="0 0 60 57" width="512" xmlns="http://www.w3.org/2000/svg"><g id="Page-1" fill="none" fill-rule="evenodd"><g id="029---Medicine" fill="rgb(0,0,0)" fill-rule="nonzero" transform="translate(0 -1)"><path id="Shape" d="m2.626 46.647c.21033468 1.1398972.72677006 2.2011131 1.494 3.07.70697522.6662821 1.60513361 1.0940266 2.568 1.223 1.38944802.15592 2.79489807.088399 4.163-.2l.584-.091c.7094149-.0908227 1.411272-.2331994 2.1-.426.2252629.3569043.483745.6917256.772 1 .2413275.2707312.6103219.3895791.9642911.3105845s.637423-.3434481.7407483-.6910948c.1033252-.3476468.0103241-.7239877-.2430394-.9834897-.3625123-.3987644-.6656312-.8477172-.9-1.333-.2474068-.4925718-.8467516-.6920553-1.34-.446-.7681414.3085926-1.5762042.5065679-2.4.588l-.6.093c-1.16046784.2472576-2.35204141.3147115-3.533.2-.54485313-.0681056-1.05665895-.2984008-1.469-.661-.50202158-.6305709-.8357757-1.378249-.97-2.173-.15334837-.6463459-.37075695-1.2757923-.649-1.879-.98827618-1.9672977-1.56341299-4.1160633-1.69-6.314-.222-4.055.663-8.151 1.755-12.7 1.05602682-4.0254296 1.70165442-8.147462 1.927-12.303-.04295961-1.5556795.30063298-3.09772303 1-4.488 1.092-2.186 7.554-4.334 13.1-5.4.7160794-.14147743 1.452364.11838775 1.921.678l2.622 3.152c.4365697.52783204.5689764 1.24396292.35 1.893-.5546136-.28873166-1.1248237-.54646128-1.708-.772-.257-.1-.507-.2-.739-.3-1.138-.5-2.2-.919-3.228-1.282-.518142-.17268344-1.0789926.10229372-1.2597938.61765924-.1808013.51536551.0853319 1.08046631.5977938 1.26934076.985.346 1.994.747 3.087 1.226.25.11.519.218.8.329 1.62.652 2.779 1.2 2.937 2.279.0824345.5085586-.0569983 1.0280638-.383 1.427-.2487071.2898737-.6152321.45163-.997.44-.7713115-.0307939-1.5129332-.3056631-2.118-.785-1.331-.836-2.989-1.878-7.046-1.2-2.91.482-4.05-.061-4.471-.428-.2667884-.2505698-.64915216-.3353701-.99685836-.2210826-.34770621.1142876-.60519597.4094014-.67130008.7693896-.0661041.3599882.06974003.7273293.35415844.957693.53878003.4483152 1.1784884.7589032 1.864.905.0620865 1.0755906.2200465 2.1434938.472 3.191 0 .011 0 .022.007.033.620112 2.5057335 1.5299059 4.9307318 2.711 7.226 1.1304239 2.3879733 1.6168427 5.0300099 1.411 7.664-1.4859842 1.6180592-2.3737938 3.6957313-2.516 5.888 0 .5522847.4477153 1 1 1s1-.4477153 1-1c0-.052.071-5.266 6.276-7.039 1.9561745-.4954122 4.0140924-.4123868 5.924.239.5270075.1555988 1.0808314-.1431808 1.2401899-.6690637.1593584-.5258829-.1354585-1.0818264-.6601899-1.2449363-2.2766138-.7687725-4.72799-.8570415-7.054-.254-1.1261436.3149255-2.2009033.7908376-3.191 1.413-.0364625-2.3921361-.596236-4.7472805-1.64-6.9-.8810304-1.7319363-1.6110681-3.5366216-2.182-5.394.2902394-.000364.5802754-.0153831.869-.045 1.973-.2 4.918-1.765 6.792-2.868.7872015.4937922 1.6967538.7577217 2.626.762.9605618.0087697 1.8757966-.4078452 2.5-1.138.7032481-.8397734 1.0123973-1.9409125.849-3.024-.0973901-.6666871-.384072-1.2914175-.826-1.8.0195705-.0288374.0372734-.05889898.053-.09.7203145-1.42287587.5236624-3.13807562-.5-4.361l-2.62-3.149c-.9362349-1.12358541-2.4110439-1.6466326-3.846-1.364-2.925.566-12.619 2.7-14.5 6.475-.82215526 1.6341949-1.23726774 3.4428503-1.21 5.272-.21928255 4.0337214-.84682252 8.0348331-1.873 11.942-1.127 4.706-2.043 8.953-1.805 13.279.14213944 2.4699402.78876546 4.8845779 1.9 7.095.21617672.485951.38495883.9916276.504 1.51zm11.756-30.526c-.3911237.0370686-.7848763.0370686-1.176 0-.1297641-.6365048-.2202682-1.2803864-.271-1.928.747228-.0129859 1.4923823-.0828545 2.229-.209 1.3675493-.3144123 2.7934434-.2668481 4.137.138-1.5165387.9363362-3.1792124 1.6120192-4.919 1.999z"/><path id="Shape" d="m55.636 23.432c-.012-.013-.016-.03-.029-.043s-.029-.016-.042-.028c-4.2948246-4.2736463-10.7399453-5.5418386-16.3337387-3.2139541-5.5937934 2.3278846-9.2363516 7.7941139-9.2312613 13.8529541-.0007173.7207379.0534392 1.4404846.162 2.153.0546616.353157.2935781.650326.6267519.7795661.3331738.1292402.7099878.0709169.9885-.153.2785121-.2239169.4164097-.5794091.3617481-.9325661-.093398-.6112175-.1398671-1.2286883-.139-1.847-.0066969-5.0771071 2.9467042-9.6922656 7.5596263-11.8131172 4.612922-2.1208515 10.0388435-1.3581968 13.8883737 1.9521172l-11.155 11.15c-.3575753.3954727-.3420027 1.00193.035398 1.3785299.3774007.3766.9838896.3908846 1.378602.0324701l11.155-11.151c3.0330659 3.5225781 3.9487069 8.3991297 2.4 12.782-.1850154.5205284.0869716 1.0924846.6075 1.2775s1.0924846-.0869716 1.2775-.6075c1.9203296-5.4323747.5570262-11.4846332-3.507-15.569z"/><path id="Shape" d="m18 48.5c.0060617 5.2441922 4.2558078 9.4939383 9.5 9.5h23c5.2467051 0 9.5-4.2532949 9.5-9.5s-4.2532949-9.5-9.5-9.5h-23c-5.2441922.0060617-9.4939383 4.2558078-9.5 9.5zm2 0c.0044093-4.1403079 3.3596921-7.4955907 7.5-7.5h10.5v15h-10.5c-4.1403079-.0044093-7.4955907-3.3596921-7.5-7.5zm38 0c-.0044093 4.1403079-3.3596921 7.4955907-7.5 7.5h-10.5v-15h10.5c4.1403079.0044093 7.4955907 3.3596921 7.5 7.5z"/><path id="Shape" d="m27.5 43c-3.0361953.0033068-5.4966932 2.4638047-5.5 5.5 0 .5522847.4477153 1 1 1s1-.4477153 1-1c0-1.9329966 1.5670034-3.5 3.5-3.5.5522847 0 1-.4477153 1-1s-.4477153-1-1-1z"/><path id="Shape" d="m10.533 44.719-.614.095c-.543.085-1.062.167-1.519.2-.21605672-.8791215-.52130615-1.7338869-.911-2.551-.15916182-.3199313-.47691474-.5306483-.83356432-.5527757-.35664957-.0221275-.69801224.1476961-.8955.4455-.19748775.2978038-.2210975.6783444-.06193568.9982757.33762986.7203231.60195995 1.472776.789 2.246.058.213.134.493.2.713.12045077.3882809.46397495.6649977.869.7.147.012.3.018.454.018.74536022-.0233906 1.48784897-.1036235 2.221-.24l.6-.093c.5369773-.092051.9014586-.5970067.819722-1.1356505-.0817365-.5386438-.5796098-.9127415-1.119722-.8413495z"/></g></g></svg>