<svg height="512" viewBox="0 0 60 44" width="512" xmlns="http://www.w3.org/2000/svg"><g id="Page-1" fill="none" fill-rule="evenodd"><g id="030---Mouth-Guard" fill="rgb(0,0,0)" fill-rule="nonzero"><path id="Shape" d="m58.239 3.925c-3.1427641-.58344659-6.1596542-1.71067722-8.915-3.331-.8720965-.48694334-1.9301501-.50459009-2.818-.047-1.956 1.024-6.506 4.415-6.506 13.753-.0182457 1.8977996-.7377303 3.7218-2.02 5.121-2.0263138 2.2790616-4.9303985 3.5829817-7.98 3.5829817s-5.9536862-1.3039201-7.98-3.5829817c-1.2822697-1.3992-2.0017543-3.2232004-2.02-5.121 0-9.334-4.55-12.725-6.506-13.749-.8879763-.45704891-1.9457591-.43940668-2.818.047-2.75508297 1.62012191-5.77160895 2.74734291-8.914 3.331-1.02547529.14033783-1.76983259 1.04681512-1.708 2.08.578 10.085 2.446 24.681 10.56 30.681 1.343.992 2.617 2.151 3.921 3.335 2.654 2.415 8.725 3.975 15.465 3.975s12.811-1.56 15.464-3.974l.085-.077c1.23-1.117 2.5-2.272 3.841-3.262 8.1-5.99 9.975-20.536 10.556-30.679.0635131-1.03396844-.6807072-1.94211784-1.707-2.083zm-46.606-1.575c.1561277-.08659181.3314721-.13266268.51-.134.1470166-.00140432.2921754.03291219.423.1 1.634.858 5.434 3.739 5.434 11.984.013033 2.3795503.9064352 4.6700512 2.508 6.43 2.4063016 2.7177034 5.8620965 4.273619 9.492 4.273619s7.0856984-1.5559156 9.492-4.273619c1.6012372-1.760152 2.4945883-4.050522 2.508-6.43 0-8.241 3.8-11.122 5.434-11.978.2972018-.14406193.6463671-.13208627.933.032 2.9605564 1.73717751 6.2047515 2.93762788 9.583 3.546-.049.857-.108 1.689-.172 2.51-1.961 14.608-16.413 19.268-20.811 20.35-.9616105.2371664-1.7403743.940457-2.074 1.873-.548 1.482-2.918 2.367-4.893 2.367s-4.345-.885-4.888-2.354c-.3328521-.939248-1.1155334-1.6482829-2.083-1.887-4.4-1.082-18.876-5.749-20.814-20.4-.062-.8-.121-1.618-.169-2.458 3.37829605-.61552843 6.62286825-1.81730958 9.587-3.551zm36.567 32.728c-1.3892108 1.0623653-2.7242236 2.1937887-4 3.39l-.085.078c-2.267 2.066-7.941 3.454-14.115 3.454s-11.848-1.388-14.19-3.519c-1.2770595-1.2002568-2.6141065-2.3350446-4.006-3.4-4.045-2.989-6.82-8.711-8.404-17.328 5.347 8.825 15.5 12.047 19.147 12.947.3196822.0796941.5774073.3155972.685.627.892 2.411 4.08 3.673 6.768 3.673s5.876-1.262 6.772-3.686c.1090337-.3046381.3630656-.5346551.677-.613 3.654-.9 13.8-4.122 19.152-12.943-1.586 8.613-4.36 14.332-8.401 17.32z"/><path id="Shape" d="m41.431 35.585c-.868.788-4.803 2.415-11.431 2.415s-10.562-1.625-11.428-2.413c-.263587-.2453779-.6387524-.3300767-.9821945-.221744s-.6021093.3929628-.6771986.7451702.0449983.7175865.3143931.9565738c1.297 1.179 5.773 2.933 12.773 2.933s11.477-1.755 12.774-2.934c.276065-.2369147.4016939-.6050603.3280462-.9613137s-.3349527-.6444088-.6823279-.7524406c-.3473753-.1080318-.7260159-.018896-.9887183.2327543z"/></g></g></svg>