<svg height="512" viewBox="0 0 60 44" width="512" xmlns="http://www.w3.org/2000/svg"><g id="Page-1" fill="none" fill-rule="evenodd"><g id="032---Crotch-Protector" fill="rgb(0,0,0)" fill-rule="nonzero"><path id="Shape" d="m57 4h-10v-1c0-1.65685425-1.3431458-3-3-3h-28c-1.6568542 0-3 1.34314575-3 3v1h-10c-1.65685425 0-3 1.34314575-3 3v6c.00164458 1.4251156 1.004065 2.6530806 2.4 2.94l3.37 11.451c1.23665719 4.1749338 4.3392399 7.5404973 8.4 9.112l8.8 3.389c1.3017083 2.6605856 4.0730476 4.2800254 7.03 4.108 2.9565986.1716117 5.7274347-1.4477644 7.029-4.108l8.8-3.389c4.0608838-1.5707779 7.1636186-4.936137 8.4-9.111l3.371-11.452c1.395935-.2869194 2.3983554-1.5148844 2.4-2.94v-6c0-1.65685425-1.3431458-3-3-3zm-11.531 12.558c.112-.18.2-.372.3-.558h3.477l-2.696 9.137c-.5294696 1.7883878-1.8596158 3.2293795-3.6 3.9l-4 1.544c.034-.856.05-1.719.05-2.581-.0582806-2.1311448.4806898-4.2361081 1.556-6.077.8248403-1.2274116 1.821683-2.3300004 2.96-3.274.7535238-.5936524 1.4120963-1.2987599 1.953-2.091zm-30.935 0c.540405.7902373 1.1979337 1.4936245 1.95 2.086 1.1380629.9435851 2.1345861 2.0458563 2.959 3.273 1.0768958 1.8424723 1.6162645 3.9497169 1.557 6.083 0 .862.016 1.725.049 2.581l-4-1.545c-1.7400316-.6711395-3.0699849-2.1119222-3.6-3.9l-2.692-9.136h3.478c.101.187.185.381.299.563zm-12.534-9.558c0-.55228475.44771525-1 1-1h10v5.26c.0004002.9271362.1316959 1.8495728.39 2.74h-10.39c-.55228475 0-1-.4477153-1-1zm12.888 27.636c-3.4805696-1.3458813-6.1400749-4.229967-7.2-7.808l-3.182-10.828h4.166l2.859 9.7c.706596 2.3841554 2.4798991 4.3052338 4.8 5.2l4.857 1.875c.1216437 1.552093.389498 3.0892417.8 4.591zm16.112 7.305v-6.941c0-.5522847-.4477153-1-1-1s-1 .4477153-1 1v6.941c-1.9630048-.1517161-3.6708859-1.4017348-4.409-3.227-.0122759-.0267076-.0259618-.0527443-.041-.078-.99-2.115-1.55-5.452-1.55-10.636.0594491-2.5085299-.5863763-4.9833856-1.864-7.143-.9264461-1.3940634-2.0501367-2.646426-3.336-3.718-.6005881-.467025-1.1298281-1.0191729-1.571-1.639-.7978423-1.2707139-1.2236078-2.7395877-1.229-4.24v-8.26c0-.55228475.4477153-1 1-1h13v20c0 .5522847.4477153 1 1 1s1-.4477153 1-1v-20h13c.5522847 0 1 .44771525 1 1v8.26c-.0044929 1.5001204-.4292128 2.9689723-1.226 4.24-.4404764.6206309-.9690278 1.173774-1.569 1.642-1.2882101 1.0712946-2.4139648 2.324042-3.342 3.719-1.2763989 2.1586191-1.921838 4.6319363-1.863 7.139 0 5.184-.56 8.521-1.55 10.636-.0150382.0252557-.0287241.0512924-.041.078-.7381141 1.8252652-2.4459952 3.0752839-4.409 3.227zm21.31-15.112c-1.059789 3.5781103-3.7193423 6.4622481-7.2 7.808l-7.094 2.732c.410502-1.5017583.6783563-3.038907.8-4.591l4.853-1.873c2.3197487-.8952846 4.0928592-2.8161543 4.8-5.2l2.859-9.705h4.166zm5.69-13.829c0 .5522847-.4477153 1-1 1h-10.389c.2575614-.8905625.3885121-1.8129406.389-2.74v-5.26h10c.5522847 0 1 .44771525 1 1z"/><path id="Shape" d="m33 25h-6c-.5522847 0-1 .4477153-1 1s.4477153 1 1 1h6c.5522847 0 1-.4477153 1-1s-.4477153-1-1-1z"/><path id="Shape" d="m33 30h-6c-.5522847 0-1 .4477153-1 1s.4477153 1 1 1h6c.5522847 0 1-.4477153 1-1s-.4477153-1-1-1z"/><path id="Shape" d="m27 5c0-.55228475-.4477153-1-1-1h-8c-.5522847 0-1 .44771525-1 1v4c0 .55228475.4477153 1 1 1s1-.44771525 1-1v-3h7c.5522847 0 1-.44771525 1-1z"/></g></g></svg>