<svg height="512" viewBox="0 0 60 57" width="512" xmlns="http://www.w3.org/2000/svg"><g id="Page-1" fill="none" fill-rule="evenodd"><g id="033---Shoe" fill="rgb(0,0,0)" fill-rule="nonzero"><path id="Shape" d="m58.161 50.243c.0061009-1.7637148-.3637827-3.5084744-1.085-5.118-1.975-3.971-6.905-4.151-10.505-4.282-2.2-.087-4.232-.174-6.636-.215l-10.727-9.2c-1.3821409-1.1855542-2.1504051-2.9351215-2.088-4.755l.3-8.66v-.014-.01l.41-11.989.08-2.322c.0332456-.94669313-.3834821-1.853274-1.1236421-2.44445612s-1.7164284-.79721792-2.6323579-.55554388c-.988.263-2.228.605-3.651 1.029l-.072.022h-.015c-6.3983594 1.88663858-12.58534796 4.4273821-18.463 7.582-1.21654758.68222203-1.8050488 2.1108481-1.422 3.452.738 2.505 2.446 9.845 2.469 23.982-2.72032 4.4758996-2.93697935 10.0390916-.573 14.713-1.1411019.7022268-1.6764739 2.0772829-1.31062788 3.3662332.36584603 1.2889502 1.54376514 2.1777186 2.88362788 2.1757668h41.917c3.8819965-.0009417 7.7561188-.3493316 11.576-1.041 1.3182044-.2160292 2.3336769-1.2794284 2.4887286-2.6061878.1550516-1.3267593-.5878578-2.5956518-1.8207286-3.1098122zm-2.261-2.37c.1480895.7328065.2343926 1.4767527.258 2.224-3.3808861.5980962-6.8076184.8992444-10.241.9h-15.109c.9-1.051 2.684-2.24 6.192-2.24.207 0 .615-.021 5.095.1l2.136.054c4.98.089 9.091.061 11.669-1.038zm-31.235-45.266c.304528-.07946106.628696-.01092271.875.185.2469828.19618874.3849449.49888721.371.814l-.048 1.394h-1.863c-.5522847 0-1 .44771525-1 1s.4477153 1 1 1h1.794l-.137 4h-1.657c-.5522847 0-1 .4477153-1 1s.4477153 1 1 1h1.588l-.137 4h-1.451c-.5522847 0-1 .4477153-1 1s.4477153 1 1 1h1.382l-.138 4h-1.244c-.5522847 0-1 .4477153-1 1s.4477153 1 1 1h1.176l-.055 1.6c-.0250756.7757088.0652438 1.5508386.268 2.3l-.586.118c-.5078696.0975892-.8575457.5663168-.8063948 1.0809416s.486252.9053499 1.0033948.9010584c.0671839.0003722.1342202-.0063314.2-.02l.949-.19c.4554621.8181969 1.0523641 1.5491733 1.763 2.159l.047.04-.15.03c-.3510025.0687818-.6385415.3197964-.7540851.658298-.1155437.3385016-.0414958.7129398.1941942.9819823.23569.2690426.5971288.391717.9478909.3217197l1.693-.336 2.608 2.236-.691.139c-.5022063.1019314-.8460864.5670034-.7963715 1.0770324s.4769342.8999383.9893715.9029676c.067187.0004396.1342304-.0062648.2-.02l2.227-.445 2.404 2.065c-.7633333 0-1.5153333.01-2.256.03-2.1276778.0388044-4.1941848-.7126203-5.8-2.109l-3.229-2.77c-3.0099299-2.5686026-4.6797599-6.3727796-4.533-10.327l.756-22.008c1.105-.323 2.09-.595 2.896-.809zm-21.752 8.458c5.3670688-2.88742441 11.0035372-5.24329337 16.829-7.034l-.732 21.324c-.1692131 4.561736 1.7569503 8.9503975 5.229 11.914l3.231 2.771c1.9812075 1.7207808 4.5313968 2.6435537 7.155 2.589 1.561-.038 3.153-.042 4.871-.009 2.507.035 4.722.131 7 .222 3.26.119 7.313.268 8.764 3.134-2.16 1.005-6.426 1.024-10.987.935l-2.126-.054c-4.728-.123-4.821-.092-5.147-.1-5.647 0-7.812 2.72-8.582 4.24h-9.464c-.784-10.026-11.03-13.861-13.954-14.755-.058-13.558-1.615-20.868-2.547-24.033-.12797627-.4417421.06184323-.9138149.46-1.144zm1.577 27.1c2.659.788 11.674 4.084 12.457 12.835h-12.512c-2.19359422-4.001163-2.17281224-8.8497879.055-12.832zm52.674 15.821c-3.7112747.6726124-7.4752678 1.0119642-11.247 1.014h-41.917c-.55228475 0-1-.4477153-1-1s.44771525-1 1-1h41.917c3.6614431-.0026821 7.3153173-.332662 10.918-.986.3570445-.0696255.7237357.0601288.9575267.3388226.2337911.2786939.2978007.6623621.1671458 1.0018586-.1306549.3394964-.4353628.5812641-.7956725.6313188z"/><path id="Shape" d="m6.914 20.152c.04714121-.0000715.09423227-.0030773.141-.009.26272928-.0369285.50001484-.1767495.65962177-.3886835s.22845137-.4786076.19137823-.7413165c-.283-2.014-.617-3.873-1-5.537 1.722-.874 3.564-1.722 5.487-2.524.5097588-.2126296.7506296-.7982412.538-1.308-.2126296-.50975882-.7982412-.75062963-1.308-.538-2.235.933-4.365 1.926-6.332 2.951-.40857612.2129609-.61876303.6775194-.509 1.125.438 1.789.821 3.844 1.139 6.11.06989708.4943625.49372268.8614219.993.86z"/></g></g></svg>