<svg height="512" viewBox="0 0 52 60" width="512" xmlns="http://www.w3.org/2000/svg"><g id="Page-1" fill="none" fill-rule="evenodd"><g id="034---Trophy" fill="rgb(0,0,0)" fill-rule="nonzero"><path id="Shape" d="m45 53h-1v-6.53c.0015975-.5942176-.2620376-1.1581547-.719-1.538l-5.361-4.47c-.359548-.2988827-.8124473-.4623511-1.28-.462h-3.757c.1184378-.320257.1806856-.6585603.184-1v-7.506c1.941-1.529 9.933-8.369 9.933-17.394 0-2.572-.681-4.291-2.023-5.107-1.2282001-.64214937-2.6827803-.68672997-3.948-.121-.2036592-3.35401689-2.3479809-6.27983337-5.485-7.484-2.3568569-.96837972-4.8886054-1.4385713-7.436-1.381-2.2264997-.05141244-4.4421954.32471607-6.527 1.108-3.086 1.22-6.72 3.993-6.5 10.272.0375455 1.0960415.2701849 2.1766126.687 3.191.156 4.365 2.332 11.279 5.232 16.67v7.752c.0033144.3414397.0655622.679743.184 1h-1.824c-.4675527-.0003511-.920452.1631173-1.28.462l-5.357 4.467c-.45915292.3798299-.72436658.9451055-.723 1.541v6.53h-1c-1.1045695 0-2 .8954305-2 2v3c0 1.1045695.8954305 2 2 2h38c1.1045695 0 2-.8954305 2-2v-3c0-1.1045695-.8954305-2-2-2zm-26.684-50.025c1.7387886-.64738441 3.5796064-.97761392 5.435-.975 2.3864377-.09499979 4.7657784.31882824 6.98 1.214 3.853 1.714 5.136 5.06 3.812 9.946-1.709 6.308-7.212 7.772-11.791 7.039-3.762-.6-7.613-2.848-9.07-6.216-.0157939-.044027-.0355412-.0865338-.059-.127-.3324901-.8065719-.5180774-1.6660983-.548-2.538-.14-4.105 1.625-6.912 5.241-8.343zm.684 36.025v-7h.137c.5522847 0 1-.4477153 1-1s-.4477153-1-1-1h-.537c-1.9455562-3.7305176-3.4012589-7.6966438-4.331-11.8 2.2630981 2.1110478 5.1066114 3.4958848 8.164 3.976.7914139.1262914 1.5915729.1898226 2.393.19 4.706 0 9.892-2.211 11.645-8.681.2383472-.866323.4082041-1.7500467.508-2.643 1.3-.59 2.34-.714 2.956-.34.694.423 1.062 1.6 1.062 3.4 0 8.237-7.828 14.764-9.274 15.9h-8.586c-.5522847 0-1 .4477153-1 1s.4477153 1 1 1h7.93v3h-6.513c-.5522847 0-1 .4477153-1 1s.4477153 1 1 1h6.513v2c0 .5522847-.4477153 1-1 1h-10.067c-.2655634.0000005-.5202209-.1056308-.7078148-.2936-.187594-.1879691-.2927163-.4428372-.2921852-.7084zm26 19h-38v-3h8c.5522847 0 1-.4477153 1-1s-.4477153-1-1-1h-5v-6.532l5.36-4.468h21.279l5.361 4.47v6.53h-22c-.5522847 0-1 .4477153-1 1s.4477153 1 1 1h25z"/><path id="Shape" d="m37 50v-5c0-.5522847-.4477153-1-1-1h-20c-.5522847 0-1 .4477153-1 1v5c0 .5522847.4477153 1 1 1h20c.5522847 0 1-.4477153 1-1zm-2-1h-18v-3h18z"/><path id="Shape" d="m16.074 12.216h.035c.2650925-.009125.5156994-.1231968.6966773-.317115.1809778-.1939183.2774982-.4517943.2683227-.716885-.08-2.312.586-3.53 2.374-4.343.5012576-.2293021.7224384-.82098548.4945099-1.32286913s-.8190039-.72468404-1.3215099-.49813087c-2.527 1.149-3.653 3.129-3.546 6.233.0188479.5381826.4604875.9647914.999.965z"/><path id="Shape" d="m28.553 28.9c.3197527.1596977.7004141.1366785.9985928-.0603866.2981786-.1970651.4685741-.5382372.447-.895-.0215741-.3567629-.2318401-.6749157-.5515928-.8346134l-2.211-1.11 2.211-1.1c.3197527-.1596977.5300187-.4778505.5515928-.8346134.0215741-.3567628-.1488214-.6979349-.447-.895-.2981787-.1970651-.6788401-.2200843-.9985928-.0603866l-3.553 1.772-3.553-1.777c-.4942949-.2468713-1.0951287-.0462949-1.342.448s-.0462949 1.0951287.448 1.342l2.211 1.105-2.211 1.105c-.4942949.2468713-.6948713.8477051-.448 1.342s.8477051.6948713 1.342.448l3.553-1.777z"/><path id="Shape" d="m5 16c0-.5522847-.44771525-1-1-1h-3c-.55228475 0-1 .4477153-1 1s.44771525 1 1 1h3c.55228475 0 1-.4477153 1-1z"/><path id="Shape" d="m51 15h-3c-.5522847 0-1 .4477153-1 1s.4477153 1 1 1h3c.5522847 0 1-.4477153 1-1s-.4477153-1-1-1z"/><path id="Shape" d="m7.813 26.5c-.27615038-.4782682-.88771969-.6421293-1.366-.366l-2.6 1.5c-.31195078.1773616-.50495322.5082732-.5057421.8671183-.00078889.3588451.19075673.6906021.50192468.8693336.31116795.1787314.694247.1770325 1.00381742-.0044519l2.6-1.5c.47826816-.2761504.64212934-.8877197.366-1.366z"/><path id="Shape" d="m45.054 6c.175539-.00000772.3479833-.04622279.5-.134l2.6-1.5c.4742136-.27800577.6351286-.88664704.3602745-1.3626943-.274854-.47604727-.8824145-.64099599-1.3602745-.3693057l-2.6 1.5c-.3919413.22631394-.5830208.68765624-.4658809 1.12482233.1171398.4371661.5132928.74115776.9658809.74117767z"/><path id="Shape" d="m48.151 27.634-2.6-1.5c-.3095704-.1814844-.6926495-.1831833-1.0038174-.0044519-.311168.1787315-.5027136.5104885-.5019247.8693336s.1937913.6897567.5057421.8671183l2.6 1.5c.47786.2716903 1.0854205.1067416 1.3602745-.3693057.2748541-.4760473.1139391-1.0846885-.3602745-1.3626943z"/><path id="Shape" d="m6.447 5.866c.30957042.18148438.69264947.18318331 1.00381742.00445186s.50271357-.51048847.50192468-.86933356c-.00078888-.35884509-.19379132-.68975672-.5057421-.8671183l-2.6-1.5c-.30957042-.18148438-.69264947-.18318331-1.00381742-.00445186s-.50271357.51048847-.50192468.86933356c.00078888.35884509.19379132.68975672.5057421.8671183z"/></g></g></svg>