<svg height="512" viewBox="0 0 52 60" width="512" xmlns="http://www.w3.org/2000/svg"><g id="Page-1" fill="none" fill-rule="evenodd"><g id="035---Punch-Torso" fill="rgb(0,0,0)" fill-rule="nonzero"><path id="Shape" d="m5 16c0-.5522847-.44771525-1-1-1h-3c-.55228475 0-1 .4477153-1 1s.44771525 1 1 1h3c.55228475 0 1-.4477153 1-1z"/><path id="Shape" d="m51 15h-3c-.5522847 0-1 .4477153-1 1s.4477153 1 1 1h3c.5522847 0 1-.4477153 1-1s-.4477153-1-1-1z"/><path id="Shape" d="m6.447 26.134-2.6 1.5c-.31195078.1773616-.50495322.5082732-.5057421.8671183-.00078889.3588451.19075673.6906021.50192468.8693336.31116795.1787314.694247.1770325 1.00381742-.0044519l2.6-1.5c.47421361-.2780058.63512861-.886647.36027453-1.3626943s-.88241457-.640996-1.36027453-.3693057z"/><path id="Shape" d="m45.054 6c.1755887.00037182.3481299-.04586922.5-.134l2.6-1.5c.3119508-.17736158.5049532-.50827321.5057421-.8671183s-.1907567-.69060211-.5019247-.86933356c-.3111679-.17873145-.694247-.17703252-1.0038174.00445186l-2.6 1.5c-.3919413.22631394-.5830208.68765624-.4658809 1.12482233.1171398.4371661.5132928.74115776.9658809.74117767z"/><path id="Shape" d="m48.15 27.634-2.6-1.5c-.3095704-.1814844-.6926495-.1831833-1.0038174-.0044519-.311168.1787315-.5027136.5104885-.5019247.8693336s.1937913.6897567.5057421.8671183l2.6 1.5c.3095704.1814844.6926495.1831833 1.0038174.0044519.311168-.1787315.5027136-.5104885.5019247-.8693336s-.1937913-.6897567-.5057421-.8671183z"/><path id="Shape" d="m7.447 4.134-2.6-1.5c-.30957042-.18148438-.69264947-.18318331-1.00381742-.00445186s-.50271357.51048847-.50192468.86933356c.00078888.35884509.19379132.68975672.5057421.8671183l2.6 1.5c.30957042.18148438.69264947.18318331 1.00381742.00445186s.50271357-.51048847.50192468-.86933356c-.00078888-.35884509-.19379132-.68975672-.5057421-.8671183z"/><path id="Shape" d="m33.049 16.453c-1.3813272.7177503-3.0256728.7177503-4.407 0-.3115356-.1750601-.6927998-.1706201-1.0001742.0116476-.3073743.1822676-.4941612.5146721-.49.872.0041613.3573278.1986386.6852923.5101742.8603524 1.0181976.5237926 2.1459808.7989703 3.291.803 1.0797502.0038741 2.1417924-.2743045 3.081-.807.4807639-.2720002.6500002-.8822361.378-1.363s-.8822361-.6500002-1.363-.378z"/><path id="Shape" d="m24.337 18.194c.3115356-.1750601.5060129-.5030246.5101742-.8603524.0041612-.3573279-.1826257-.6897324-.49-.872-.3073744-.1822677-.6886386-.1867077-1.0001742-.0116476-1.3812236.7167279-3.0247764.7167279-4.406 0-.3109997-.1759533-.6922452-.1726245-1.0001251.0087325s-.4956198.5131897-.4925.8705.1966254.6858142.5076251.8617675c.9387334.5340873 2.0009752.8130077 3.081.809 1.1449295-.0050777 2.2723739-.2812844 3.29-.806z"/><path id="Shape" d="m30 25.029h-3v-3.353c0-.5522847-.4477153-1-1-1s-1 .4477153-1 1v3.353h-3c-.5522847 0-1 .4477153-1 1s.4477153 1 1 1h3v1.971h-2c-.5522847 0-1 .4477153-1 1s.4477153 1 1 1h2v2.647c0 .5522847.4477153 1 1 1s1-.4477153 1-1v-2.647h2c.5522847 0 1-.4477153 1-1s-.4477153-1-1-1h-2v-1.971h3c.5522847 0 1-.4477153 1-1s-.4477153-1-1-1z"/><path id="Shape" d="m37.084 3.873c-4.409-1.331-5.8-2.584-6.2-3.061-.4385633-.52102948-1.0869987-.81884031-1.768-.812h-6.232c-.681957-.00731592-1.331504.29050007-1.771.812-.394.477-1.788 1.73-6.2 3.061-4.3 1.289-6.882 4.492-6.917 8.57.00199786 1.5285341.83426151 2.935301 2.173 3.673l3.391 1.907c.01.106.01.205.022.313.283 2.567.566 4.135.794 5.394l.15.836c.2171614 1.2780095.3208986 2.5727174.31 3.869.0204622 1.8372505-.0717106 3.6740279-.276 5.5l-.149 1.589c-.0402199.503414.0392803 1.0091998.232 1.476h-.143c-1.9329966 0-3.5 1.5670034-3.5 3.5s1.5670034 3.5 3.5 3.5h6.5v4h-3.913c-1.143171-.0056328-2.1919339.633451-2.711 1.652l-3.05 6c-.4710156.9204634-.4270302 2.0200984.116 2.9.5514065.904146 1.5359918 1.4535408 2.595 1.448h23.926c1.0582066.0063897 2.042612-.5413873 2.595-1.444.5430302-.8799016.5870156-1.9795366.116-2.9l-3.051-6c-.5172613-1.0202728-1.5661081-1.6611917-2.71-1.656h-3.913v-4h6.5c1.9329966 0 3.5-1.5670034 3.5-3.5s-1.5670034-3.5-3.5-3.5h-.153c.1909774-.4654817.2691056-.9695462.228-1.471l-.137-1.488c-.2072644-1.8612198-.3001056-3.7334058-.278-5.606-.0110398-1.2922254.0920269-2.5829026.308-3.857l.152-.848c.228-1.259.511-2.827.794-5.393.012-.107.012-.206.021-.312l3.386-1.9c1.3416822-.7364711 2.1765255-2.144479 2.179-3.675-.036-4.082-2.622-7.288-6.916-8.577zm-1.244 46.686 1.242 2.441h-3.082c-.5522847 0-1 .4477153-1 1s.4477153 1 1 1h4.1l.792 1.559c.1564242.3014094.1419745.6630324-.038.951-.1887208.3096675-.5274095.4961366-.89.49h-23.927c-.3625905.0061366-.7012792-.1803325-.89-.49-.1799745-.2879676-.1944242-.6495906-.038-.951l.791-1.559h4.1c.5522847 0 1-.4477153 1-1s-.4477153-1-1-1h-3.082l1.241-2.441c.1810566-.3446483.5386894-.5600758.928-.559h17.826c.3891396-.0013821.7466228.2141876.927.559zm-6.84-2.559h-6v-4h6zm10-7.5c0 .8284271-.6715729 1.5-1.5 1.5h-23c-.8284271 0-1.5-.6715729-1.5-1.5s.6715729-1.5 1.5-1.5h23c.8284271 0 1.5.6715729 1.5 1.5zm1.843-26.118-2.379 1.334c-.1179051-1.7646894-.601835-3.4855183-1.421-5.053-.2587454-.4879436-.8640564-.67374541-1.352-.415-.4879436.2587454-.6737454.8640564-.415 1.352 1.0360668 2.005205 1.4371794 4.2782929 1.15 6.517-.275 2.5-.552 4.028-.775 5.257l-.155.876c-.2351997 1.3823613-.3476381 2.7828209-.336 4.185-.0211733 1.9349929.0743333 3.8695024.286 5.793l.137 1.481c.0328125.3351237-.0788639.668334-.307.916-.2145359.2390951-.520765.3754798-.842.375h-16.878c-.321235.0004798-.6274641-.1359049-.842-.375-.2282965-.2479735-.3399757-.5815559-.307-.917l.148-1.581c.211564-1.8896994.3067435-3.7906188.285-5.692.0116749-1.4072377-.1014346-2.8127398-.338-4.2l-.153-.864c-.223-1.229-.5-2.758-.775-5.258-.2871-2.238382.1140138-4.5111277 1.15-6.516.2587454-.4879436.0729436-1.0932546-.415-1.352-.4879436-.25874541-1.0932546-.0729436-1.352.415-.8190657 1.5664493-1.3030022 3.2862799-1.421 5.05l-2.382-1.34c-.7029818-.3798563-1.1447352-1.1110079-1.154-1.91.027-3.2 2.029-5.633 5.494-6.672 4.516-1.364 6.386-2.766 7.16-3.7.061027-.06014445.1444123-.09204836.23-.088h6.232c.0852359-.00421376.168439.02689697.23.086.774.936 2.644 2.338 7.162 3.7 4.917 1.475 5.479 5.162 5.492 6.678-.0069644.8025085-.4503677 1.5375539-1.157 1.918z"/></g></g></svg>