<svg height="512" viewBox="0 0 52 60" width="512" xmlns="http://www.w3.org/2000/svg"><g id="Page-1" fill="none" fill-rule="evenodd"><g id="036---Punch-Bag" fill="rgb(0,0,0)" fill-rule="nonzero" transform="translate(0 -1)"><path id="Shape" d="m5 17c0-.5522847-.44771525-1-1-1h-3c-.55228475 0-1 .4477153-1 1s.44771525 1 1 1h3c.55228475 0 1-.4477153 1-1z"/><path id="Shape" d="m51 16h-3c-.5522847 0-1 .4477153-1 1s.4477153 1 1 1h3c.5522847 0 1-.4477153 1-1s-.4477153-1-1-1z"/><path id="Shape" d="m6.447 27.134-2.6 1.5c-.31195078.1773616-.50495322.5082732-.5057421.8671183-.00078889.3588451.19075673.6906021.50192468.8693336.31116795.1787314.694247.1770325 1.00381742-.0044519l2.6-1.5c.47421361-.2780058.63512861-.886647.36027453-1.3626943s-.88241457-.640996-1.36027453-.3693057z"/><path id="Shape" d="m45.054 7c.1755887.00037182.3481299-.04586922.5-.134l2.6-1.5c.3119508-.17736158.5049532-.50827321.5057421-.8671183s-.1907567-.69060211-.5019247-.86933356c-.3111679-.17873145-.694247-.17703252-1.0038174.00445186l-2.6 1.5c-.3919413.22631394-.5830208.68765624-.4658809 1.12482233.1171398.4371661.5132928.74115776.9658809.74117767z"/><path id="Shape" d="m48.15 28.634-2.6-1.5c-.3095704-.1814844-.6926495-.1831833-1.0038174-.0044519-.311168.1787315-.5027136.5104885-.5019247.8693336s.1937913.6897567.5057421.8671183l2.6 1.5c.3095704.1814844.6926495.1831833 1.0038174.0044519.311168-.1787315.5027136-.5104885.5019247-.8693336s-.1937913-.6897567-.5057421-.8671183z"/><path id="Shape" d="m7.447 5.134-2.6-1.5c-.30957042-.18148438-.69264947-.18318331-1.00381742-.00445186s-.50271357.51048847-.50192468.86933356c.00078888.35884509.19379132.68975672.5057421.8671183l2.6 1.5c.30957042.18148438.69264947.18318331 1.00381742.00445186s.50271357-.51048847.50192468-.86933356c-.00078888-.35884509-.19379132-.68975672-.5057421-.8671183z"/><path id="Shape" d="m38.825 53.35c-.9091208-1.4662189-2.5138146-2.3558227-4.239-2.35h-5.586v-14.177c.7533514-.2872791 1.3219106-.9202526 1.527-1.7 1.1633985-4.4919399 3.1863659-8.7158224 5.957-12.438 2.525-3.573 5.074-8.383 2.364-13.913-2.4480617-4.82311498-7.4235561-7.83663917-12.832-7.772h-.045c-5.4025036-.05900062-10.3708221 2.95167864-12.819 7.768-2.71 5.531-.161 10.341 2.363 13.913 2.7709453 3.7221245 4.7942504 7.9460031 5.958 12.438.2039544.781266.7726883 1.4159239 1.527 1.704v14.177h-5.586c-1.7251854-.0058227-3.3298792.8837811-4.239 2.35l-2.869 4.59c-.38514815.6162345-.40573522 1.3928907-.0537744 2.028664.3519607.6357733 1.0210808 1.0306112 1.7477744 1.031336h28c.7277678.0014582 1.3988858-.3925253 1.7523218-1.0287101s.3333974-1.4141442-.0523218-2.0312899zm-1.774-43.7c1.778 3.627 1.12 7.18-2.2 11.882-1.4694134 2.0438337-2.7646294 4.2074332-3.872 6.468h-.711c.456-1.709 1.031-3.5 1.789-5.541 1.3-3.49 2.619-8.178 1.232-13.5-.4189038-1.73637816-1.1486693-3.3825855-2.154-4.859 2.5554348 1.10774 4.646648 3.06887099 5.916 5.548zm-10.051 18.35v-24.813c1.833.615 3.514 3 4.353 6.275 1.247 4.781.03 9.084-1.17 12.3-.7710331 2.0422494-1.431326 4.1246088-1.978 6.238zm-3.2 0c-.5468507-2.11411-1.2074794-4.1971435-1.979-6.24-1.2-3.214-2.416-7.517-1.168-12.3.835-3.264 2.51-5.643 4.352-6.269v24.809zm-8.851-18.353c1.2699022-2.4791974 3.3618888-4.44003716 5.918-5.547-1.0065625 1.47548827-1.7367474 3.12153851-2.155 4.858-1.388 5.323-.071 10.011 1.23 13.5.758 2.042 1.334 3.833 1.79 5.542h-.711c-1.1078452-2.2614705-2.4033846-4.426055-3.873-6.471-3.319-4.701-3.977-8.254-2.199-11.882zm6.951 20.353h8.2c-.6060663 1.5054849-1.1115112 3.0495472-1.513 4.622-.063834.2276101-.2736637.383131-.51.378h-4.157c-.2363363.005131-.446166-.1503899-.51-.378-.4003598-1.5724242-.9048053-3.116495-1.51-4.622zm3.1 7h2v14h-2zm-13 22 1.25-2h4.75c.5522847 0 1-.4477153 1-1s-.4477153-1-1-1h-3.5l.369-.59c.5460755-.879898 1.5094297-1.4136228 2.545-1.41h17.172c1.0352148-.0032752 1.9981114.5304057 2.544 1.41l.37.59h-3.5c-.5522847 0-1 .4477153-1 1s.4477153 1 1 1h4.752l1.248 2z"/></g></g></svg>