<svg height="512" viewBox="0 0 60 51" width="512" xmlns="http://www.w3.org/2000/svg"><g id="Page-1" fill="none" fill-rule="evenodd"><g id="037---Title-Belt" fill="rgb(0,0,0)" fill-rule="nonzero"><path id="Shape" d="m57 19h-4.561c-4.8373296-.0661848-9.5776765-1.3662349-13.772-3.777-5.4120983-2.9080441-11.9219017-2.9080441-17.334 0-4.1943235 2.4107651-8.9346704 3.7108152-13.772 3.777h-4.561c-1.65685425 0-3 1.3431458-3 3v14c0 1.6568542 1.34314575 3 3 3h4.561c4.8373483.0660524 9.5777279 1.3661115 13.772 3.777 5.3978871 2.9639787 11.9361129 2.9639787 17.334 0 4.1942721-2.4108885 8.9346517-3.7109476 13.772-3.777h4.561c1.6568542 0 3-1.3431458 3-3v-14c0-1.6568542-1.3431458-3-3-3zm1 17c0 .5522847-.4477153 1-1 1h-4.561c-5.1756624.0641643-10.249106 1.4496457-14.739 4.025-4.8085286 2.5825036-10.5914714 2.5825036-15.4 0-4.489894-2.5753543-9.5633376-3.9608357-14.739-4.025h-4.561c-.55228475 0-1-.4477153-1-1v-14c0-.5522847.44771525-1 1-1h4.561c5.1756438-.0642969 10.2490546-1.4497694 14.739-4.025 4.8085286-2.5825036 10.5914714-2.5825036 15.4 0 4.4899454 2.5752306 9.5633562 3.9607031 14.739 4.025h4.561c.5522847 0 1 .4477153 1 1z"/><path id="Shape" d="m34.871 37.73c-3.9034915 2.1712365-8.7735537 1.490438-11.9319959-1.6680041-3.1584421-3.1584422-3.8392406-8.0285044-1.6680041-11.9319959.2700672-.4818684.0983684-1.0914327-.3835-1.3615-.4818685-.2700672-1.0914327-.0983684-1.3615.3835-2.6104979 4.6852332-1.794968 10.533846 1.997648 14.3262296 3.792616 3.7923837 9.6412787 4.6075553 14.326352 1.9967704.4818684-.2703434.6533433-.8801315.383-1.362-.2703434-.4818684-.8801316-.6533434-1.362-.383z"/><path id="Shape" d="m24.15 18.525c-.3117142.1748815-.5064519.5027762-.5108572.8601694s.1821911.6899883.4895.8725c.307309.1825117.688643.1872121 1.0003572.0123306 3.9034915-2.1712365 8.7735537-1.490438 11.9319959 1.6680041 3.1584421 3.1584422 3.8392406 8.0285044 1.6680041 11.9319959-.2700672.4818684-.0983684 1.0914327.3835 1.3615.4818685.2700672 1.0914327.0983684 1.3615-.3835 2.6104979-4.6852332 1.794968-10.533846-1.997648-14.3262296-3.792616-3.7923837-9.6412787-4.6075553-14.326352-1.9967704z"/><path id="Shape" d="m10 24c-2.76142375 0-5 2.2385763-5 5s2.23857625 5 5 5c2.7614237 0 5-2.2385763 5-5-.0033061-2.7600532-2.2399468-4.9966939-5-5zm0 8c-1.65685425 0-3-1.3431458-3-3s1.34314575-3 3-3c1.6568542 0 3 1.3431458 3 3s-1.3431458 3-3 3z"/><path id="Shape" d="m50 24c-2.7614237 0-5 2.2385763-5 5s2.2385763 5 5 5 5-2.2385763 5-5c-.0033061-2.7600532-2.2399468-4.9966939-5-5zm0 8c-1.6568542 0-3-1.3431458-3-3s1.3431458-3 3-3 3 1.3431458 3 3-1.3431458 3-3 3z"/><path id="Shape" d="m36.8 25.847-4.079-.593-1.826-3.7c-.187346-.3167406-.5280012-.511033-.896-.511033s-.708654.1942924-.896.511033l-1.826 3.7-4.079.593c-.3767821.0547154-.6898044.3186414-.8073976.6807607-.1175933.3621193-.0193529.7595972.2533976 1.0252393l2.956 2.878-.7 4.063c-.0645549.375437.0898077.754941.3980948.9787252.3082871.2237841.7169424.2529722 1.0539052.0752748l3.648-1.918 3.648 1.918c.3369628.1776974.7456181.1485093 1.0539052-.0752748.3082871-.2237842.4626497-.6032882.3980948-.9787252l-.7-4.063 2.952-2.878c.2727505-.2656421.3709909-.66312.2533976-1.0252393-.1175932-.3621193-.4306155-.6260453-.8073976-.6807607zm-4.17 3.519c-.2351084.2296083-.3423982.5600756-.287.884l.442 2.585-2.32-1.22c-.2916759-.1536204-.6403241-.1536204-.932 0l-2.32 1.22.442-2.585c.0553982-.3239244-.0518916-.6543917-.287-.884l-1.878-1.831 2.595-.377c.3257247-.0473007.6073155-.251856.753-.547l1.162-2.352 1.161 2.352c.1456845.295144.4272753.4996993.753.547l2.595.377z"/><path id="Shape" d="m48 1c-.5522847 0-1 .44771525-1 1 0 .245-.064 6-4 6-.5522847 0-1 .44771525-1 1s.4477153 1 1 1c3.936 0 4 5.756 4 6 0 .5522847.4477153 1 1 1s1-.4477153 1-1c0-.245.064-6 4-6 .5522847 0 1-.44771525 1-1s-.4477153-1-1-1c-3.936 0-4-5.756-4-6 0-.55228475-.4477153-1-1-1zm1.866 8c-.8076935.63657191-1.4481571 1.4603193-1.866 2.4-.4178429-.9396807-1.0583065-1.76342809-1.866-2.4.807052-.63516426 1.4474662-1.45713221 1.866-2.395.4185338.93786779 1.058948 1.75983574 1.866 2.395z"/><path id="Shape" d="m38 0c-.5522847 0-1 .44771525-1 1v2c0 .55228475.4477153 1 1 1s1-.44771525 1-1v-2c0-.55228475-.4477153-1-1-1z"/><path id="Shape" d="m37 9c0 .55228475.4477153 1 1 1s1-.44771525 1-1v-2c0-.55228475-.4477153-1-1-1s-1 .44771525-1 1z"/><path id="Shape" d="m42 4h-2c-.5522847 0-1 .44771525-1 1s.4477153 1 1 1h2c.5522847 0 1-.44771525 1-1s-.4477153-1-1-1z"/><path id="Shape" d="m36 4h-2c-.5522847 0-1 .44771525-1 1s.4477153 1 1 1h2c.5522847 0 1-.44771525 1-1s-.4477153-1-1-1z"/><path id="Shape" d="m13.293 43.293-1.5 1.5c-.2599566.2510745-.3642126.6228779-.2726972.9725073.0915155.3496295.3645604.6226744.7141899.7141899.3496294.0915154.7214328-.0127406.9725073-.2726972l1.5-1.5c.3789722-.3923789.3735524-1.0160848-.0121814-1.4018186s-1.0094397-.3911536-1.4018186-.0121814z"/><path id="Shape" d="m8.793 47.793-1.5 1.5c-.25995658.2510745-.3642126.6228779-.27269716.9725073.09151544.3496295.3645604.6226744.71418984.7141899.34962943.0915154.72143285-.0127406.97250732-.2726972l1.5-1.5c.3789722-.3923789.3735524-1.0160848-.0121814-1.4018186-.38573382-.3857338-1.00943971-.3911536-1.4018186-.0121814z"/><path id="Shape" d="m13.207 47.793c-.3923789-.3789722-1.0160848-.3735524-1.4018186.0121814s-.3911536 1.0094397-.0121814 1.4018186l1.5 1.5c.3923789.3789722 1.0160848.3735524 1.4018186-.0121814s.3911536-1.0094397.0121814-1.4018186z"/><path id="Shape" d="m8.707 43.293c-.25107447-.2599566-.62287789-.3642126-.97250732-.2726972-.34962944.0915155-.6226744.3645604-.71418984.7141899-.09151544.3496294.01274058.7214328.27269716.9725073l1.5 1.5c.39237889.3789722 1.01608478.3735524 1.4018186-.0121814.3857338-.3857338.3911536-1.0094397.0121814-1.4018186z"/></g></g></svg>