<svg height="512" viewBox="0 0 60 56" width="512" xmlns="http://www.w3.org/2000/svg"><g id="Page-1" fill="none" fill-rule="evenodd"><g id="038---Shorts" fill="rgb(0,0,0)" fill-rule="nonzero"><path id="Shape" d="m53.959 12.6c-.237-1.62-.959-6.154-.959-6.6 0-4.746-15.045-6-23-6s-23 1.258-23 6c0 .462-.329 2.292-.958 6.585l-5.909 37.501c-.15077517.9136868.35058254 1.8101542 1.208 2.16 2.659 1.087 10.279 3.629 23.653 3.754h.018c1.0796183-.0034565 1.9646778-.857206 2.007-1.936.057-1.9.38-8.339 2.109-11.5.1769972-.3153007.5104166-.5104941.872-.5104941s.6950028.1951934.872.5104941c1.729 3.163 2.052 9.6 2.109 11.5.0423222 1.078794.9273817 1.9325435 2.007 1.936h.019c13.373-.125 21-2.667 23.652-3.754.8571351-.3497063 1.3587414-1.2454615 1.209-2.159zm-5.331 2.319c-3.556 1.081-9.859 2.081-18.628 2.081-8.858 0-15.208-1.023-18.742-2.132-.111-.047-3.239-.994-3.251-1.9.112-.738.718-4.749.679-4.492 4.144 2.73 14.975 3.524 21.314 3.524s17.17-.8 21.314-3.522c.015.1.729 4.823.685 4.527-.01.829-2.586 1.67-3.371 1.909zm-18.628-12.919c13.588 0 21 2.647 21 4s-7.412 4-21 4-21-2.638-21-4 7.412-4 21-4zm-22.375 13.4c.73641122.4657987 1.52433676.8446607 2.348 1.129l-5.4 34.738c-1.154-.357-1.976-.667-2.461-.865zm27.356 38.6c-.079-2.578-.465-8.945-2.353-12.4-.5274517-.9579869-1.5344076-1.5530667-2.628-1.5530667s-2.1005483.5950798-2.628 1.5530667c-1.888 3.459-2.272 9.826-2.359 12.4-6.2343277.025356-12.4484978-.709397-18.505-2.188l5.4-34.689c4.0615562.9587062 8.2046588 1.5312539 12.374 1.71-1.7740635 1.2518408-2.9449019 3.1875303-3.23 5.34-1.3785698.4659745-2.2222153 1.8559641-1.9992581 3.2939756.2229573 1.4380114 1.4478992 2.5072757 2.9028483 2.5339258 1.454949.0266501 2.7182272-.9970379 2.9936969-2.4259198s-.5167067-2.8488345-1.8772871-3.3649816c.453-2.933 3.384-5.21 6.928-5.21s6.475 2.273 6.931 5.206c-1.3686947.5166141-2.1669745 1.943307-1.8912356 3.3800337.2757389 1.4367266 1.5454719 2.4665232 3.0081741 2.4397311s2.693871-1.1023972 2.91681-2.5482581c.222939-1.4458608-.6270527-2.8423626-2.0137485-3.3085067-.2850981-2.1524697-1.4559365-4.0881592-3.23-5.34 4.1708906-.177119 8.3156804-.7483293 12.379-1.706l5.4 34.689c-6.0612695 1.4785178-12.2800606 2.2132613-18.519 2.188zm-12.981-28c.5522847 0 1 .4477153 1 1s-.4477153 1-1 1-1-.4477153-1-1 .4477153-1 1-1zm16 0c.5522847 0 1 .4477153 1 1s-.4477153 1-1 1-1-.4477153-1-1 .4477153-1 1-1zm17.431 25.26-5.4-34.738c.8222778-.2824189 1.609164-.6589162 2.345-1.122l5.525 35c-.487.2-1.312.506-2.47.864z"/><path id="Shape" d="m22.152 42.291-2.008-.6-.642-2c-.2329679-.724754-.8571881-1.2544023-1.6102036-1.366251-.7530154-.1118487-1.5042321.2134999-1.9377964.839251l-1.193 1.723-2.1-.007h-.006c-.7604472-.0004072-1.4553341.4304779-1.7930386 1.1118264-.3377045.6813486-.2597926 1.4952647.2010386 2.1001736l1.27 1.668-.654 1.992c-.2374695.7231548-.0438771 1.5184168.4994042 2.0515116s1.3420649.7116017 2.0605958.4604884l1.98-.693 1.691 1.238c.6144656.4498973 1.4311139.5117826 2.1063593.159619.6752455-.3521635 1.0918902-1.0572531 1.0746407-1.818619l-.047-2.1 1.7-1.227c.6170486-.4462828.9271125-1.2042594.7997508-1.9550565-.1273617-.7507972-.6700459-1.3641176-1.3997508-1.5819435zm-2.7 3.45c-.2669828.1924564-.4221733.5039593-.415.833l.063 2.626-2.116-1.549c-.1718335-.1247025-.3786854-.1919031-.591-.192-.1123942-.0003559-.2240153.0185858-.33.056l-2.476.866.818-2.491c.1028934-.3126952.045302-.6559999-.154-.918l-1.588-2.087 2.622.009c.3281159-.0001108.6353021-.161178.822-.431l1.493-2.163v.007l.8 2.5c.1005648.3133526.3488656.5571661.664.652l2.513.754z"/></g></g></svg>