<svg height="512" viewBox="0 0 58 60" width="512" xmlns="http://www.w3.org/2000/svg"><g id="Page-1" fill="none" fill-rule="evenodd"><g id="039---Gong" fill="rgb(0,0,0)" fill-rule="nonzero"><path id="Shape" d="m29 17c0-.5522847-.4477153-1-1-1-7.7285595.0082673-13.9917327 6.2714405-14 14 0 .5522847.4477153 1 1 1s1-.4477153 1-1c.0071648-6.624447 5.375553-11.9928352 12-12 .5522847 0 1-.4477153 1-1z"/><path id="Shape" d="m48.114 49.443c.147-.154.313-.306.451-.456.2582588-.2598223.3537735-.6400637.2489565-.9910888-.1048171-.3510251-.3931855-.616638-.7516246-.6923127s-.7295659.0507036-.9673319.3294015c-.321.347-.666.713-1.062 1.07-.3.3-.6.583-.939.87-.884397.7912713-1.8303855 1.510878-2.829 2.152-.361.247-.722.465-1.1.685-8.5344814 5.0271782-19.1867994 4.7555739-27.454-.7-1.3512819-.8774486-2.613018-1.8856316-3.767-3.01-5.09746704-4.8821895-7.96900229-11.6417198-7.944-18.7.01637831-10.4878711 6.32300786-19.9422972 16-23.986v2.193c-8.85054283 4.0500849-14.37559159 13.0476153-13.98401605 22.7729413.39157553 9.7253259 6.62211065 18.2495356 15.76961705 21.5749562 9.1475064 3.3254207 19.3976766.7924915 25.943399-6.4108975.2608378-.2605895.3571205-.6435682.2505328-.9965303-.1065878-.3529622-.3987515-.6186375-.7602253-.6913009-.3614737-.0726635-.733606.059475-.9683075.3438312-5.9282823 6.5127329-15.1708951 8.8594728-23.4880345 5.9637148-8.3171393-2.895758-14.10377915-10.4751959-14.70545163-19.2614472-.60167247-8.7862512 4.09773203-17.0837616 11.94248613-21.0862676v4.64c-5.7249029 3.820762-8.76681398 10.5740385-7.8345938 17.3934007.9322202 6.8193622 5.6750273 12.5084525 12.2153363 14.6525359 6.5403089 2.1440834 13.7307181.3670118 18.5192575-4.5769366.3838379-.3973689.3728689-1.0306621-.0245-1.4145s-1.0306621-.3728689-1.4145.0245c-2.993405 3.1220212-7.1358119 4.8804026-11.461 4.865-7.1390985.0035616-13.4158619-4.7252567-15.3817221-11.5883562-1.9658603-6.8630994.8553972-14.1979469 6.9137221-17.9746438 1.1740449-.7404345 2.4419876-1.3202576 3.77-1.724 3.0639735-.9505264 6.3440265-.9505264 9.408 0 1.324497.4033596 2.5890549.9821639 3.76 1.721 3.1022035 1.9379694 5.4467311 4.8803639 6.643 8.337.1794926.5227375.7487625.8009925 1.2715.6215.5227375-.1794926.8009925-.7487625.6215-1.2715-1.287419-3.7007481-3.7472466-6.8803368-7.006-9.056v-4.649c7.3633759 3.7532135 11.9994342 11.3192606 12 19.584.0007084 1.3273457-.1208046 2.6519373-.363 3.957-.1010032.5428822.2571403 1.0648763.8 1.166.0606518.0115151.1222652.0172076.184.017.4813535.0000355.894431-.3428651.983-.816 1.9882438-10.7948429-3.6186784-21.559029-13.604-26.117v-2.193c12.1910883 5.083683 18.6364368 18.4973013 14.988 31.192-.1508375.5309971.1571109 1.0837826.688 1.235.0893123.0261656.1819342.039301.275.039.4464878-.0003258.8386624-.2965993.961-.726 4.0130367-13.9736137-3.3332448-28.69441151-16.912-33.889v-.865c.0015254-.24487396-.0287271-.48891095-.09-.726-.3332125-1.3359845-1.5330886-2.27361962-2.91-2.274-.7916941-.00593167-1.5519543.30943019-2.107.874-.4009152.39139298-.6807176.8898995-.806 1.436-2.7096162-.40500684-5.4643838-.40500684-8.174 0-.1202877-.5385992-.3935714-1.03099594-.787-1.418-.5579289-.57399851-1.3255361-.89606134-2.126-.892-1.3719342.00082756-2.5685044.93222529-2.906 2.262-.063834.2407602-.0954431.48892538-.094.738v.863c-10.82718862 4.15235793-17.98155182 14.5408908-18 26.137-.0243744 7.2656113 2.80412383 14.2504974 7.877 19.452l-1.21 1.348c-1.07534691 1.1934317-1.66938519 2.7435616-1.667 4.35v2.85c0 1.1045695.8954305 2 2 2h3c1.1045695 0 2-.8954305 2-2v-2.652l1.359-1.512c8.8085841 5.4449497 19.9090134 5.5604629 28.829.3.159-.094.3-.193.46-.288l1.352 1.5v2.652c0 1.1045695.8954305 2 2 2h3c1.1045695 0 2-.8954305 2-2v-2.85c.0027549-1.6063234-.5909334-3.1564699-1.666-4.35zm-24.114-36.991v-4.072c2.6437889-.49399291 5.3562111-.49399291 8 0v4.073c-2.6332922-.5963154-5.3665588-.5966571-8-.001zm10.306-10.164c.1823963-.18659849.4330776-.29062758.694-.288.4635528.00897521.863361.32800167.975.778.0172911.07271483.0256859.14726073.025.222v1.184c-.0664968.19994962-.0664968.41605038 0 .616v9.09c-.6483063-.3244375-1.3162781-.6079915-2-.849v-10.041c-.0003954-.2693445.110308-.52692903.306-.712zm-2.306 2.035v2.019c-2.6475974-.4510052-5.3524026-.4510052-8 0v-2.019c2.6502084-.41899277 5.3497916-.41899277 8 0zm-11.971-1.557c.099163-.34226272.3692801-.60826443.7130248-.70216144s.7115818-.00215834.9709752.24216144c.1854514.18309032.2889672.4334037.287.694v10.044c-.683671.2411397-1.3516347.5246903-2 .849v-10.893c-.0006369-.07893425.0091134-.15760927.029-.234zm-9.647 51.39c-.2446157.2734632-.3805197.6270984-.382.994v2.85h-3.00000638l.00000638-2.85c-.00187489-1.1123148.4093738-2.1856953 1.154-3.012l1.179-1.313c.747247.6717326 1.5318293 1.3007338 2.35 1.884zm38.6180125 3.844h-3.0000125v-2.85c-.0018573-.3693571-.1392079-.7251878-.386-1l-1.285-1.43c.7221969-.5090306 1.4165305-1.0564859 2.08-1.64.093-.08.18-.161.271-.242l1.167 1.3c.7446775.8262002 1.155627 1.8997301 1.153 3.012z"/><path id="Shape" d="m28 35c2.7614237 0 5-2.2385763 5-5s-2.2385763-5-5-5-5 2.2385763-5 5c.0033061 2.7600532 2.2399468 4.9966939 5 5zm0-8c1.6568542 0 3 1.3431458 3 3s-1.3431458 3-3 3-3-1.3431458-3-3 1.3431458-3 3-3z"/><path id="Shape" d="m46.632 34.388c.7448228-2.6734986-.4067171-5.5130483-2.8033053-6.9125914s-5.4355167-1.0071142-7.3979585.9553276-2.3548707 5.0013703-.9553276 7.3979585 4.2390928 3.5481281 6.9125914 2.8033053l10.5 10.486c.7541357.7671702 1.8618799 1.0707813 2.9017802.7953215 1.0399003-.2754597 1.8520816-1.087641 2.1275413-2.1275413.2754598-1.0399003-.0281513-2.1476445-.7953215-2.9017802zm-8.6 1.3c-1.5616316-1.5622644-1.5612896-4.0946297.0007639-5.6564722 1.5620534-1.5618426 4.0944188-1.5618426 5.6564722 0 1.5620535 1.5618425 1.5623955 4.0942078.0007639 5.6564722-1.5644462 1.5607226-4.0971053 1.5602752-5.661-.001zm17.668 12.012c-.3896849.3857397-1.0173151.3857397-1.407 0l-9.976-9.966c.562779-.3707854 1.0442146-.852221 1.415-1.415l9.975 9.981c.1899184.1833574.2971827.4360134.2971827.7s-.1072643.5166426-.2971827.7z"/></g></g></svg>