<svg height="512" viewBox="0 0 60 60" width="512" xmlns="http://www.w3.org/2000/svg"><g id="Page-1" fill="none" fill-rule="evenodd"><g id="040---Referee" fill="rgb(0,0,0)" fill-rule="nonzero"><path id="Shape" d="m57 7h-3.586l-6.706-6.706c-.1901218-.18432266-.4432355-.28942921-.708-.294h-32c-.2603766.02187264-.5074812.12427949-.707.293l-6.707 6.707h-3.586c-1.65685425 0-3 1.34314575-3 3v47c0 1.6568542 1.34314575 3 3 3h54c1.6568542 0 3-1.3431458 3-3v-47c0-1.65685425-1.3431458-3-3-3zm-9 31h10v13.382l-3 1.5-7-3.5zm0-2v-3h10v3zm-33-14c-.0005436-.480575.027506-.9607568.084-1.438.316-2.818 1.495-4.562 2.406-4.562 1.4440035.1699526 2.8366708.6392839 4.089 1.378 1.309.642 2.571 1.367 3.421 1.876v.526l-3.8-.76c-.5317506-.08744-1.0371542.2622052-1.1428396.7906321s.2263622 1.0455623.7508396 1.1693679l4.2.84v.36l-4.2.84c-.5020335.1018801-.8458929.5666655-.7964505 1.0765407.0494425.5098751.4761959.8999345.9884505.9034593.0671846.000387.1342224-.0063167.2-.02l3.8-.76v.521c-3.453 2.07-6.178 3.259-7.51 3.259-1.015 0-2.49-2.337-2.49-6zm25.153-15h-20.306l-3.824-5h27.954zm-1.529 2-6.118 8h-5.012l-6.118-8zm-11.624 16v-6h6v6zm8.515.053-.515-.309v-.524l3.8.76c.0657696.0137352.132813.0204396.2.02.5137531.0005163.9443106-.3883485.9959422-.8995008.0516315-.5111523-.2924636-.9782648-.7959422-1.0804992l-4.2-.84v-.36l4.2-.84c.5244774-.1238056.856525-.640941.7508396-1.1693679s-.611089-.8780721-1.1428396-.7906321l-3.8.76v-.528c.607-.365 1.386-.817 2.233-1.271.379-.2.777-.408 1.177-.6 1.2533156-.7394643 2.6469074-1.2097845 4.092-1.381.521 0 1.11.559 1.576 1.5.4545351.9671655.7358016 2.0065994.831 3.071.0557165.4742891.0834312.9514497.083 1.429.028816 1.5489615-.2835705 3.0852885-.915 4.5-.465.936-1.054 1.5-1.575 1.5-.582 0-2.043-.258-5.281-1.983-.629-.331-1.209-.663-1.714-.964zm11.385-4.71c-.1212323-1.2965662-.4691819-2.5617758-1.028-3.738-.83-1.68-2.026-2.605-3.362-2.605-1.7529779.1687548-3.4501057.7079908-4.979 1.582-.422.205-.843.421-1.243.636s-.791.434-1.158.643l10.97-14.346 5.8 5.8-3.325 14.961c-.066958.3003994-.2685127.5532326-.5464341.6854553-.2779215.1322226-.6012468.1291038-.8765659-.0084553l-.276-.138c.0791446-.6018219.1205588-1.208006.124-1.815-.0002928-.5538323-.0336856-1.1071521-.1-1.657zm-33-17.829 10.974 14.351c-.723-.41-1.559-.863-2.414-1.282-1.5259643-.873458-3.2199709-1.4130179-4.97-1.583-2.2 0-3.968 2.547-4.393 6.332-.065481.5535758-.0978718 1.1105656-.097 1.668.0005663.6086731.0376328 1.2167645.111 1.821l-.263.132c-.2753542.137873-.5988743.141193-.877.009-.2792478-.1307199-.4812694-.384542-.546-.686l-3.325-14.957zm-11.9 54.486v-47c0-.55228475.44771525-1 1-1h3.2l3.272 14.71c.17888134.8654202.7365639 1.6049462 1.5194425 2.0148871.7828787.409941 1.7083685.4470525 2.5215575.1011129.737 2.526 2.206 4.174 3.977 4.174 2.092 0 5.535-1.757 8.313-3.407.3439408.2625694.7642926.4054961 1.197.407h6c.3521367-.0019998.6973555-.0979706 1-.278v31.278h-31c-.55228475 0-1-.4477153-1-1zm55 1h-21v-30.376c.1.053.189.105.289.158 2.8 1.492 4.835 2.218 6.221 2.218 1.336 0 2.532-.925 3.366-2.605.2417837-.5075533.438863-1.0352172.589-1.577.8151271.343802 1.740979.306999 2.5262448-.1004192.7852658-.4074183 1.3484764-1.1431833 1.5367552-2.0075808l3.272-14.71h3.2c.5522847 0 1 .44771525 1 1v21h-10c-1.1045695 0-2 .8954305-2 2v16.38c-.0046593.7586182.4217758 1.4540952 1.1 1.794l7 3.5c.5666202.2830396 1.2333798.2830396 1.8 0l2.1-1.054v3.38c0 .5522847-.4477153 1-1 1z"/><path id="Shape" d="m30 31c-1.6568542 0-3 1.3431458-3 3s1.3431458 3 3 3 3-1.3431458 3-3-1.3431458-3-3-3zm0 4c-.5522847 0-1-.4477153-1-1s.4477153-1 1-1 1 .4477153 1 1-.4477153 1-1 1z"/><path id="Shape" d="m30 40c-1.6568542 0-3 1.3431458-3 3s1.3431458 3 3 3 3-1.3431458 3-3-1.3431458-3-3-3zm0 4c-.5522847 0-1-.4477153-1-1s.4477153-1 1-1 1 .4477153 1 1-.4477153 1-1 1z"/><path id="Shape" d="m30 49c-1.6568542 0-3 1.3431458-3 3s1.3431458 3 3 3 3-1.3431458 3-3-1.3431458-3-3-3zm0 4c-.5522847 0-1-.4477153-1-1s.4477153-1 1-1 1 .4477153 1 1-.4477153 1-1 1z"/><path id="Shape" d="m10 54h-4v-4c0-.5522847-.44771525-1-1-1s-1 .4477153-1 1v5c0 .5522847.44771525 1 1 1h5c.5522847 0 1-.4477153 1-1s-.4477153-1-1-1z"/></g></g></svg>